<svg xmlns="http://www.w3.org/2000/svg" viewBox="0 0 72.27 72.25"><title>instagram-icon</title><g id="Layer_2" data-name="Layer 2"><g id="Layer_1-2" data-name="Layer 1"><path d="M36.18,0A36.13,36.13,0,1,1,0,35.6,36.17,36.17,0,0,1,36.18,0Zm0,13.37c-3.47,0-6.94,0-10.41.22-7,.45-11.77,5-12.19,12a175,175,0,0,0,0,21c.4,6.84,4.88,11.33,11.7,12a76.24,76.24,0,0,0,7.85.25c4.75,0,9.51.19,14.26-.3A12,12,0,0,0,58.29,49a23.81,23.81,0,0,0,.53-5.25c0-5.08,0-10.15,0-15.23a28.77,28.77,0,0,0-.31-4.15,12.08,12.08,0,0,0-5-8.46,13.4,13.4,0,0,0-6.9-2.3C43.16,13.34,39.69,13.34,36.21,13.37Z"/><path d="M54.65,36.26c0,2.78,0,5.56,0,8.34a17,17,0,0,1-.3,3,7.81,7.81,0,0,1-6.75,6.75,27.6,27.6,0,0,1-4.63.34l-14.74,0a22.11,22.11,0,0,1-3-.24c-4.39-.62-7-3.31-7.42-7.71-.15-1.59-.24-3.2-.24-4.8,0-5-.18-10,.14-15.06,0-.53,0-1.07.12-1.6a8,8,0,0,1,7.66-7.48,42,42,0,0,1,4.48-.25c5.5,0,11-.26,16.5.21,4.68.4,7.3,2.87,8,7.47a45.75,45.75,0,0,1,.27,6.08c0,1.65,0,3.31,0,5ZM36.17,24.49a11.67,11.67,0,1,0,0,23.34,11.67,11.67,0,1,0,0-23.34Zm12.06-3.2A2.67,2.67,0,0,0,45.54,24a2.75,2.75,0,0,0,2.76,2.71A2.82,2.82,0,0,0,51,24,2.75,2.75,0,0,0,48.23,21.29Z"/><path d="M36.13,28.59a7.6,7.6,0,0,1,7.58,7.54,7.68,7.68,0,0,1-7.57,7.58,7.56,7.56,0,0,1,0-15.12Z"/></g></g></svg>