<svg xmlns="http://www.w3.org/2000/svg" version="1.1" xmlns:xlink="http://www.w3.org/1999/xlink" xmlns:svgjs="http://svgjs.dev/svgjs" width="1000" height="1000" viewBox="0 0 1000 1000"><rect width="1000" height="1000" fill="#ffffff"></rect><g transform="matrix(0.7,0,0,0.7,149.5757585338381,433.17223114943897)"><svg viewBox="0 0 396 76" data-background-color="#ffffff" preserveAspectRatio="xMidYMid meet" height="191" width="1000" xmlns="http://www.w3.org/2000/svg" xmlns:xlink="http://www.w3.org/1999/xlink"><defs></defs><g id="tight-bounds" transform="matrix(1,0,0,1,0.2399994580001703,-0.01262539160165943)"><svg viewBox="0 0 395.52 76.02526239502248" height="76.02526239502248" width="395.52"><g><svg viewBox="0 0 596.99817103187 114.75258546229375" height="76.02526239502248" width="395.52"><g transform="matrix(1,0,0,1,201.47817103186998,15.859438367075334)"><svg viewBox="0 0 395.52 83.03370872814308" height="83.03370872814308" width="395.52"><g><svg viewBox="0 0 395.52 83.03370872814308" height="83.03370872814308" width="395.52"><g><svg viewBox="0 0 395.52 52.19322918581142" height="52.19322918581142" width="395.52"><g transform="matrix(1,0,0,1,0,0)"><svg width="395.52" viewBox="1.9000000953674316 -35.45000076293945 272.0299987792969 35.900001525878906" height="52.19322918581142" data-palette-color="#a437db"><path d="M9.25 0L1.9-35 3.7-35 10.7-1.7 12.65-1.7 20.3-34.5 22.5-34.5 30.15-1.7 32.1-1.7 39.1-35 40.9-35 33.55 0 28.75 0 21.4-32.05 14.05 0 9.25 0ZM67.85 0L47.4 0 47.4-35 67.85-35 67.85-33.3 49.2-33.3 49.2-18.75 64.85-18.75 64.85-17.05 49.2-17.05 49.2-1.7 67.85-1.7 67.85 0ZM75 0L75-35 87-35Q97.1-35 97.1-26.35L97.1-26.35Q97.1-19.85 92.25-18.05L92.25-18.05Q98.45-16.35 98.45-9.65L98.45-9.65Q98.45-4.25 95.77-2.13 93.1 0 87.95 0L87.95 0 75 0ZM87.55-17.05L87.55-17.05 76.8-17.05 76.8-1.7 87.95-1.7Q92.1-1.7 94.35-3.48 96.6-5.25 96.6-9.65L96.6-9.65Q96.6-17.05 87.55-17.05ZM87-33.3L87-33.3 76.8-33.3 76.8-18.75 87.55-18.75Q91.6-18.75 93.42-20.6 95.25-22.45 95.25-26.2 95.25-29.95 93.25-31.63 91.25-33.3 87-33.3ZM129.74-12.85L129.74-12.85 118.79-12.85 118.79 0 116.99 0 116.99-35 129.74-35Q135.14-35 137.62-32.38 140.09-29.75 140.09-24.25L140.09-24.25Q140.09-12.85 129.74-12.85ZM118.79-33.3L118.79-14.55 129.74-14.55Q138.19-14.55 138.19-24.25L138.19-24.25Q138.19-28.85 136.19-31.08 134.19-33.3 129.74-33.3L129.74-33.3 118.79-33.3ZM148.54 0L146.74 0 146.74-35 148.54-35 148.54 0ZM176.59-1.7L176.59 0 157.74 0 157.74-35 159.54-35 159.54-1.7 176.59-1.7ZM200.73-1.7L200.73 0 181.88 0 181.88-35 183.68-35 183.68-1.7 200.73-1.7ZM207.26-5.43Q208.48-3.25 210.78-2.25 213.08-1.25 216.66-1.25 220.23-1.25 222.51-2.18 224.78-3.1 226.01-5.23 227.23-7.35 227.68-10.15 228.13-12.95 228.13-17.35L228.13-17.35Q228.13-25.75 225.71-29.75 223.28-33.75 216.63-33.75L216.63-33.75Q209.68-33.75 207.28-29.4L207.28-29.4Q206.08-27.2 205.61-24.38 205.13-21.55 205.13-17.32 205.13-13.1 205.58-10.35 206.03-7.6 207.26-5.43ZM205.88-4.1L205.88-4.1Q204.38-6.5 203.81-9.63 203.23-12.75 203.23-17.35L203.23-17.35Q203.23-26.55 206.13-31 209.03-35.45 216.63-35.45 224.23-35.45 227.13-31.03 230.03-26.6 230.03-17.2 230.03-7.8 227.21-3.68 224.38 0.45 216.53 0.45 208.68 0.45 205.88-4.1ZM242.28 0L234.93-35 236.73-35 243.73-1.7 245.68-1.7 253.33-34.5 255.53-34.5 263.18-1.7 265.13-1.7 272.13-35 273.93-35 266.58 0 261.78 0 254.43-32.05 247.08 0 242.28 0Z" opacity="1" transform="matrix(1,0,0,1,0,0)" fill="#000000" class="undefined-text-0" data-fill-palette-color="primary" id="text-0"></path></svg></g></svg></g><g transform="matrix(1,0,0,1,163.310208,64.51479795908104)"><svg viewBox="0 0 232.209792 18.518910769062046" height="18.518910769062046" width="232.209792"><g transform="matrix(1,0,0,1,0,0)"><svg width="232.209792" viewBox="2.0787880420684814 -37.599998474121094 561.0712280273438 44.75" height="18.518910769062046" data-palette-color="#a437db"><path d="M31.2-37.1L31.2-37.1Q31.55-37.1 31.68-36.9 31.8-36.7 31.6-36.4L31.6-36.4 19.7-16.5Q19.5-16.2 19.45-15.9 19.4-15.6 19.4-14.85L19.4-14.85 19.4-0.85Q19.4 0 18.45 0L18.45 0 15.45 0Q14.95 0 14.8-0.2 14.65-0.4 14.65-0.75L14.65-0.75 14.65-14.65Q14.65-15.15 14.55-15.4 14.45-15.65 14.25-16L14.25-16 2.2-36.3Q2-36.65 2.13-36.88 2.25-37.1 2.75-37.1L2.75-37.1 6.35-37.1Q6.8-37.1 7-36.98 7.2-36.85 7.4-36.5L7.4-36.5 16.7-20.5Q17-19.95 17.25-19.93 17.5-19.9 17.8-20.4L17.8-20.4 27.05-36.5Q27.25-36.9 27.45-37 27.65-37.1 28.1-37.1L28.1-37.1 31.2-37.1ZM49.55 0.5L49.55 0.5Q44.65 0.5 41.07-1.7 37.5-3.9 35.6-8.13 33.7-12.35 33.7-18.4L33.7-18.4Q33.7-24.5 35.65-28.8 37.6-33.1 41.15-35.35 44.7-37.6 49.6-37.6L49.6-37.6Q54.5-37.6 58.02-35.35 61.55-33.1 63.47-28.85 65.4-24.6 65.4-18.45L65.4-18.45Q65.4-12.4 63.5-8.18 61.6-3.95 58.02-1.73 54.45 0.5 49.55 0.5L49.55 0.5ZM49.65-3.15L49.65-3.15Q55.05-3.15 57.72-6.88 60.4-10.6 60.4-18.4L60.4-18.4Q60.4-26.35 57.67-30.15 54.95-33.95 49.6-33.95L49.6-33.95Q44.2-33.95 41.45-30.13 38.7-26.3 38.7-18.4L38.7-18.4Q38.7-10.65 41.45-6.9 44.2-3.15 49.65-3.15L49.65-3.15ZM99.75-12.35L99.75-12.35Q99.75-7.9 98.22-5.05 96.7-2.2 93.7-0.85 90.7 0.5 86.4 0.5L86.4 0.5Q81.7 0.5 78.75-1 75.8-2.5 74.4-5.55 73-8.6 73-13.2L73-13.2 73-36.4Q73-37.1 73.6-37.1L73.6-37.1 77.2-37.1Q77.8-37.1 77.8-36.45L77.8-36.45 77.8-12.15Q77.8-7.6 80.05-5.4 82.3-3.2 86.7-3.2L86.7-3.2Q89.6-3.2 91.62-4.17 93.65-5.15 94.67-7.15 95.7-9.15 95.7-12.3L95.7-12.3 95.7-36.45Q95.7-37.1 96.25-37.1L96.25-37.1 99.2-37.1Q99.75-37.1 99.75-36.5L99.75-36.5 99.75-12.35ZM120.39-37.1L120.39-37.1Q120.74-37.1 121.84-37.1 122.94-37.1 124.24-37.08 125.54-37.05 126.64-37.05 127.74-37.05 128.19-37.05L128.19-37.05Q135.14-36.95 139.42-34.85 143.69-32.75 145.67-28.75 147.64-24.75 147.64-18.85L147.64-18.85Q147.64-12.6 145.49-8.4 143.34-4.2 138.89-2.1 134.44 0 127.69 0L127.69 0 120.34 0Q119.64 0 119.64-0.8L119.64-0.8 119.64-36.4Q119.64-36.75 119.82-36.93 119.99-37.1 120.39-37.1L120.39-37.1ZM124.94-33.45L124.94-33.45Q124.44-33.45 124.44-32.75L124.44-32.75 124.44-4.15Q124.44-3.6 125.04-3.6L125.04-3.6 126.94-3.6Q132.49-3.6 135.94-5.08 139.39-6.55 141.02-9.85 142.64-13.15 142.64-18.6L142.64-18.6Q142.64-24.3 140.97-27.53 139.29-30.75 135.87-32.1 132.44-33.45 127.19-33.45L127.19-33.45 124.94-33.45ZM182.24-0.95L182.24-0.95Q182.39-0.6 182.21-0.3 182.04 0 181.69 0L181.69 0 178.04 0Q177.49 0 177.24-0.6L177.24-0.6 170.79-16.35Q170.54-16.9 169.59-16.9L169.59-16.9 161.14-16.9Q160.79-16.9 160.66-16.75 160.54-16.6 160.54-16.35L160.54-16.35 160.54-0.8Q160.54 0 159.69 0L159.69 0 156.44 0Q156.04 0 155.89-0.18 155.74-0.35 155.74-0.65L155.74-0.65 155.74-36.4Q155.74-37.1 156.34-37.1L156.34-37.1 170.29-37.1Q176.19-37.1 179.46-34.68 182.74-32.25 182.74-27.5L182.74-27.5Q182.74-24.65 181.64-22.68 180.54-20.7 178.86-19.53 177.19-18.35 175.44-17.8L175.44-17.8Q175.04-17.75 175.24-17.3L175.24-17.3 182.24-0.95ZM168.89-20.4L168.89-20.4Q173.29-20.4 175.51-22 177.74-23.6 177.74-27.05L177.74-27.05Q177.74-30.4 175.76-32 173.79-33.6 170.04-33.6L170.04-33.6 161.24-33.6Q160.54-33.6 160.54-33.05L160.54-33.05 160.54-21.05Q160.54-20.4 160.99-20.4L160.99-20.4 168.89-20.4ZM190.54-36.4L190.54-36.4Q190.54-37.1 191.14-37.1L191.14-37.1 213.59-37.1Q214.09-37.1 214.09-36.55L214.09-36.55 214.09-34Q214.09-33.4 213.44-33.4L213.44-33.4 195.99-33.4Q195.34-33.4 195.34-32.8L195.34-32.8 195.34-21.1Q195.34-20.55 195.89-20.55L195.89-20.55 208.84-20.55Q209.39-20.55 209.39-20L209.39-20 209.39-17.35Q209.39-17.15 209.29-17.03 209.19-16.9 208.84-16.9L208.84-16.9 195.89-16.9Q195.34-16.9 195.34-16.35L195.34-16.35 195.34-4.2Q195.34-3.7 195.84-3.7L195.84-3.7 214.19-3.7Q214.74-3.7 214.74-3.2L214.74-3.2 214.74-0.55Q214.74-0.3 214.61-0.15 214.49 0 214.19 0L214.19 0 191.24 0Q190.54 0 190.54-0.7L190.54-0.7 190.54-36.4ZM219.83 0L219.83 0Q219.53 0 219.41-0.23 219.28-0.45 219.38-0.85L219.38-0.85 232.33-36.4Q232.48-36.75 232.68-36.93 232.88-37.1 233.33-37.1L233.33-37.1 237.23-37.1Q238.13-37.1 238.38-36.35L238.38-36.35 251.18-0.85Q251.28-0.55 251.16-0.28 251.03 0 250.68 0L250.68 0 247.13 0Q246.53 0 246.33-0.5L246.33-0.5 242.88-10.2Q242.78-10.4 242.68-10.5 242.58-10.6 242.28-10.6L242.28-10.6 227.73-10.6Q227.28-10.6 227.13-10.2L227.13-10.2 223.58-0.45Q223.53-0.25 223.36-0.13 223.18 0 222.83 0L222.83 0 219.83 0ZM228.88-14.4L240.98-14.4Q241.58-14.4 241.38-15.05L241.38-15.05 235.38-31.5Q235.18-31.95 235.01-31.95 234.83-31.95 234.68-31.5L234.68-31.5 228.58-14.95Q228.33-14.4 228.88-14.4L228.88-14.4ZM258.98 0L258.98 0Q258.28 0 258.28-0.75L258.28-0.75 258.28-36.4Q258.28-37.1 258.88-37.1L258.88-37.1 263.68-37.1Q264.08-37.1 264.26-37 264.43-36.9 264.53-36.55L264.53-36.55 275.63-7.9Q275.83-7.45 276.03-7.48 276.23-7.5 276.43-7.95L276.43-7.95 287.53-36.45Q287.73-37.1 288.28-37.1L288.28-37.1 293.33-37.1Q293.88-37.1 293.88-36.45L293.88-36.45 293.88-0.75Q293.88 0 293.13 0L293.13 0 289.83 0Q289.43 0 289.26-0.15 289.08-0.3 289.08-0.65L289.08-0.65 289.08-29.25Q289.08-29.5 288.98-29.48 288.88-29.45 288.83-29.25L288.83-29.25 277.83-0.65Q277.58 0 276.88 0L276.88 0 274.48 0Q273.68 0 273.48-0.6L273.48-0.6 262.63-28.95Q262.53-29.2 262.46-29.18 262.38-29.15 262.38-28.95L262.38-28.95 262.38-0.65Q262.38-0.3 262.23-0.15 262.08 0 261.68 0L261.68 0 258.98 0ZM301.33 7.15L301.33 7.15Q301.08 7.15 300.98 6.95 300.88 6.75 300.98 6.4L300.98 6.4 303.23 0.8Q303.58 0 302.83 0L302.83 0 302.18 0Q301.53 0 301.53-0.6L301.53-0.6 301.53-5.05Q301.53-5.6 301.98-5.6L301.98-5.6 306.18-5.6Q306.68-5.6 306.68-5.1L306.68-5.1 306.68-1Q306.68-0.7 306.53-0.4L306.53-0.4 302.88 6.6Q302.73 6.85 302.45 7 302.18 7.15 301.88 7.15L301.88 7.15 301.33 7.15ZM369.27-37.1L369.27-37.1Q369.72-37.1 369.9-36.85 370.07-36.6 369.97-36.2L369.97-36.2 359.67-0.75Q359.42 0 358.57 0L358.57 0 355.52 0Q354.57 0 354.37-0.7L354.37-0.7 346.37-29.05Q346.32-29.3 346.22-29.3 346.12-29.3 346.02-29L346.02-29 337.92-0.75Q337.67 0 336.82 0L336.82 0 333.72 0Q332.77 0 332.57-0.7L332.57-0.7 322.42-36.2Q322.32-36.6 322.5-36.85 322.67-37.1 323.12-37.1L323.12-37.1 326.32-37.1Q326.72-37.1 326.92-36.98 327.12-36.85 327.17-36.5L327.17-36.5 335.32-7.4Q335.47-6.85 335.65-6.88 335.82-6.9 335.92-7.35L335.92-7.35 344.22-36.55Q344.32-36.75 344.5-36.93 344.67-37.1 345.12-37.1L345.12-37.1 347.97-37.1Q348.42-37.1 348.6-36.98 348.77-36.85 348.87-36.5L348.87-36.5 357.07-7.25Q357.22-6.8 357.37-6.83 357.52-6.85 357.67-7.25L357.67-7.25 365.92-36.55Q365.97-36.85 366.2-36.98 366.42-37.1 366.77-37.1L366.77-37.1 369.27-37.1ZM377.12-36.4L377.12-36.4Q377.12-37.1 377.72-37.1L377.72-37.1 400.17-37.1Q400.67-37.1 400.67-36.55L400.67-36.55 400.67-34Q400.67-33.4 400.02-33.4L400.02-33.4 382.57-33.4Q381.92-33.4 381.92-32.8L381.92-32.8 381.92-21.1Q381.92-20.55 382.47-20.55L382.47-20.55 395.42-20.55Q395.97-20.55 395.97-20L395.97-20 395.97-17.35Q395.97-17.15 395.87-17.03 395.77-16.9 395.42-16.9L395.42-16.9 382.47-16.9Q381.92-16.9 381.92-16.35L381.92-16.35 381.92-4.2Q381.92-3.7 382.42-3.7L382.42-3.7 400.77-3.7Q401.32-3.7 401.32-3.2L401.32-3.2 401.32-0.55Q401.32-0.3 401.2-0.15 401.07 0 400.77 0L400.77 0 377.82 0Q377.12 0 377.12-0.7L377.12-0.7 377.12-36.4ZM433.26-37.6L433.26-37.6Q435.76-37.6 438.09-36.77 440.42-35.95 442.26-34.55 444.12-33.15 445.31-31.3 446.51-29.45 446.81-27.35L446.81-27.35Q446.92-26.9 446.84-26.75 446.76-26.6 446.47-26.6L446.47-26.6 442.72-26.3Q442.47-26.25 442.37-26.4 442.26-26.55 442.22-26.8L442.22-26.8Q441.51-30 439.19-31.98 436.87-33.95 433.42-33.95L433.42-33.95Q428.22-33.95 425.42-30.1 422.62-26.25 422.62-18.5L422.62-18.5Q422.62-11 425.37-7.15 428.12-3.3 433.67-3.3L433.67-3.3Q437.22-3.3 439.59-5 441.97-6.7 443.42-10.45L443.42-10.45Q443.56-10.75 444.01-10.65L444.01-10.65 446.97-9.95Q447.12-9.9 447.22-9.75 447.31-9.6 447.22-9.25L447.22-9.25Q446.81-7.8 445.99-6.4 445.17-5 443.97-3.78 442.76-2.55 441.17-1.58 439.56-0.6 437.64-0.05 435.72 0.5 433.47 0.5L433.47 0.5Q428.51 0.5 424.94-1.8 421.37-4.1 419.49-8.4 417.62-12.7 417.62-18.6L417.62-18.6Q417.62-24.5 419.49-28.78 421.37-33.05 424.89-35.33 428.42-37.6 433.26-37.6L433.26-37.6ZM468.81 0.5L468.81 0.5Q463.91 0.5 460.34-1.7 456.76-3.9 454.86-8.13 452.96-12.35 452.96-18.4L452.96-18.4Q452.96-24.5 454.91-28.8 456.86-33.1 460.41-35.35 463.96-37.6 468.86-37.6L468.86-37.6Q473.76-37.6 477.29-35.35 480.81-33.1 482.74-28.85 484.66-24.6 484.66-18.45L484.66-18.45Q484.66-12.4 482.76-8.18 480.86-3.95 477.29-1.73 473.71 0.5 468.81 0.5L468.81 0.5ZM468.91-3.15L468.91-3.15Q474.31-3.15 476.99-6.88 479.66-10.6 479.66-18.4L479.66-18.4Q479.66-26.35 476.94-30.15 474.21-33.95 468.86-33.95L468.86-33.95Q463.46-33.95 460.71-30.13 457.96-26.3 457.96-18.4L457.96-18.4Q457.96-10.65 460.71-6.9 463.46-3.15 468.91-3.15L468.91-3.15ZM493.51-37.1L493.51-37.1Q493.86-37.1 494.96-37.1 496.06-37.1 497.36-37.08 498.66-37.05 499.76-37.05 500.86-37.05 501.31-37.05L501.31-37.05Q508.26-36.95 512.54-34.85 516.81-32.75 518.79-28.75 520.76-24.75 520.76-18.85L520.76-18.85Q520.76-12.6 518.61-8.4 516.46-4.2 512.01-2.1 507.56 0 500.81 0L500.81 0 493.46 0Q492.76 0 492.76-0.8L492.76-0.8 492.76-36.4Q492.76-36.75 492.94-36.93 493.11-37.1 493.51-37.1L493.51-37.1ZM498.06-33.45L498.06-33.45Q497.56-33.45 497.56-32.75L497.56-32.75 497.56-4.15Q497.56-3.6 498.16-3.6L498.16-3.6 500.06-3.6Q505.61-3.6 509.06-5.08 512.51-6.55 514.13-9.85 515.76-13.15 515.76-18.6L515.76-18.6Q515.76-24.3 514.09-27.53 512.41-30.75 508.99-32.1 505.56-33.45 500.31-33.45L500.31-33.45 498.06-33.45ZM528.86-36.4L528.86-36.4Q528.86-37.1 529.46-37.1L529.46-37.1 551.91-37.1Q552.41-37.1 552.41-36.55L552.41-36.55 552.41-34Q552.41-33.4 551.76-33.4L551.76-33.4 534.31-33.4Q533.66-33.4 533.66-32.8L533.66-32.8 533.66-21.1Q533.66-20.55 534.21-20.55L534.21-20.55 547.16-20.55Q547.71-20.55 547.71-20L547.71-20 547.71-17.35Q547.71-17.15 547.61-17.03 547.51-16.9 547.16-16.9L547.16-16.9 534.21-16.9Q533.66-16.9 533.66-16.35L533.66-16.35 533.66-4.2Q533.66-3.7 534.16-3.7L534.16-3.7 552.51-3.7Q553.06-3.7 553.06-3.2L553.06-3.2 553.06-0.55Q553.06-0.3 552.93-0.15 552.81 0 552.51 0L552.51 0 529.56 0Q528.86 0 528.86-0.7L528.86-0.7 528.86-36.4ZM563.15-5.05L563.15-0.8Q563.15 0 562.25 0L562.25 0 558.75 0Q558 0 558-0.7L558-0.7 558-5Q558-5.65 558.55-5.65L558.55-5.65 562.65-5.65Q563.15-5.65 563.15-5.05L563.15-5.05Z" opacity="1" transform="matrix(1,0,0,1,0,0)" fill="#000000" class="undefined-text-1" data-fill-palette-color="secondary" id="text-1"></path></svg></g></svg></g></svg></g></svg></g><g><svg viewBox="0 0 189.15660225860037 114.75258546229375" height="114.75258546229375" width="189.15660225860037"><g><svg xmlns="http://www.w3.org/2000/svg" xmlns:xlink="http://www.w3.org/1999/xlink" version="1.1" x="0" y="0" viewBox="3.7919998168945312 20.76900863647461 93.20800018310547 56.54499435424805" enable-background="new 0 0 100 100" xml:space="preserve" height="114.75258546229375" width="189.15660225860037" class="icon-icon-0" data-fill-palette-color="accent" id="icon-0"><g fill="#a437db" data-fill-palette-color="accent"><path fill="#000000" d="M3.792 59.268c0 8.378 7.3 18.046 16.31 18.046H80.69c9.01 0 16.31-9.668 16.31-18.046 0-7.518-5.918-16.605-13.655-17.793 0.13-0.604 0.271-1.223 0.2-1.862-1.02-9.188-12.178-12.789-17.575-12.028-3.044 0.429-8.563 1.701-9.471 5.485-3.377-9.464-10.332-12.301-19.07-12.301-11.262 0-20.388 8.478-20.388 18.94 0 0.605 0.031 1.201 0.097 1.787C9.549 42.801 3.792 51.845 3.792 59.268zM41.252 65.197H28.156c-1.763 0-2.797-1-2.797-2.398 0-0.664 0.231-1.332 0.667-1.934l10.73-14.993h-8.764c-1.334 0-2.333-0.769-2.333-2.131 0-1.272 1.065-2.269 2.333-2.269h12.195c1.93 0 2.801 1.235 2.801 2.399 0 0.734-0.302 1.566-0.735 2.133L31.589 60.801h9.663c1.398 0 2.399 0.766 2.399 2.198C43.652 64.266 42.45 65.197 41.252 65.197zM57.887 65.197H46.724c-1.065 0-1.969-0.534-1.969-1.631 0-0.536 0.268-1.036 0.437-1.303l7.529-10.595h-5.564c-1.202 0-2.168-0.766-2.168-2.1 0-1.332 0.966-2.097 2.168-2.097h10.895c0.436 0 1.567 0.198 1.567 1.498 0 0.633-0.135 0.933-0.499 1.433l-7.562 10.598h6.33c1.198 0 2.164 0.764 2.164 2.097C60.051 64.432 59.085 65.197 57.887 65.197zM73.913 65.197H62.75c-1.062 0-1.963-0.534-1.963-1.631 0-0.536 0.265-1.036 0.435-1.303l7.528-10.595h-5.564c-1.201 0-2.167-0.766-2.167-2.1 0-1.332 0.966-2.097 2.167-2.097H74.08c0.438 0 1.571 0.198 1.571 1.498 0 0.633-0.139 0.933-0.503 1.433l-7.563 10.598h6.328c1.202 0 2.168 0.764 2.168 2.097C76.081 64.432 75.115 65.197 73.913 65.197z" data-fill-palette-color="accent"></path></g></svg></g></svg></g></svg></g></svg><rect width="395.52" height="76.02526239502248" fill="none" stroke="none" visibility="hidden"></rect></g></svg></g></svg>