<svg xmlns="http://www.w3.org/2000/svg" viewBox="0 0 33.01 19.56"><title>news-icon</title><g id="Layer_2" data-name="Layer 2"><g id="Layer_1-2" data-name="Layer 1"><path d="M16.52,19.54c-4.94,0-9.89-.05-14.83,0C.35,19.58,0,19.13,0,17.84Q.1,9.75,0,1.66C0,.29.48,0,1.75,0c9.78,0,19.57,0,29.36,0C33,0,33,0,33,2c0,5.29,0,10.59,0,15.88,0,1.44-.48,1.75-1.81,1.73C26.31,19.49,21.41,19.54,16.52,19.54Zm0-1.11h12.9c.38,0,.91.18,1.11-.21s-.31-.78-.61-1.08c-2-2.06-4.09-4.1-6.12-6.17-.33-.33-1-.71-.54-1.21s1,.13,1.32.47c2,2,4,4,6.05,6,.27.27.55.76.94.63s.28-.78.29-1.18q0-6.08,0-12.15c0-.46.27-1.12-.29-1.34s-.87.37-1.26.66C26.17,6.08,22,9.23,17.85,12.48a1.83,1.83,0,0,1-2.71,0C10.93,9.17,6.66,6,2.41,2.71c-.31-.23-.59-.67-1-.48s-.27.7-.27,1.07q0,6.3,0,12.6c0,.37-.19.89.27,1.07s.69-.3,1-.56c2-2,4-4.05,6.05-6,.36-.35.77-1.25,1.4-.59.49.51-.25,1-.6,1.33-2,2-4,4-5.93,5.94-.31.31-.84.6-.66,1.08s.78.29,1.19.29C8.05,18.44,12.3,18.43,16.55,18.43ZM16.38,1.11H4.24c-.43,0-1-.24-1.23.24s.41.72.74,1c3.93,3,7.88,6,11.78,9a1.45,1.45,0,0,0,2.1-.12c3.8-2.93,7.62-5.83,11.42-8.76.37-.29,1.07-.5.85-1.08s-.9-.28-1.37-.28C24.48,1.11,20.43,1.12,16.38,1.11Z"/></g></g></svg>