<svg xmlns="http://www.w3.org/2000/svg" viewBox="0 0 72.25 72.27"><title>twitter-icon</title><g id="Layer_2" data-name="Layer 2"><g id="Layer_1-2" data-name="Layer 1"><path d="M36.08,0A36.14,36.14,0,1,1,0,36.5,36.12,36.12,0,0,1,36.08,0Zm-8,48.75c-4.05,3.12-8.48,4.13-13.46,4,.32.3.39.38.47.44a8.52,8.52,0,0,0,.83.48c8.07,4.12,16.38,4.59,24.55.72,10.11-4.79,15-13.28,15.62-24.28a3.46,3.46,0,0,1,1.35-2.82,12,12,0,0,0,3.19-3.68,20.94,20.94,0,0,1-4.76,1.14c1.6-1.46,3-2.78,3.53-5a26.05,26.05,0,0,1-4.65,1.9,1.92,1.92,0,0,1-2-.39A9.16,9.16,0,0,0,42.26,20c-3.72,1.81-5.43,5-5.35,9.11,0,.5.27,1.05-.18,1.61a27.53,27.53,0,0,1-19.31-9.9,8.59,8.59,0,0,0-1.33,5A10.08,10.08,0,0,0,20,33.35c-1.48.14-2.59-.61-4-.81.33,4.69,2.74,7.59,7,9.24-1.19.66-2.36.13-3.53.51C21,46.18,23.88,48.13,28.09,48.75Z"/></g></g></svg>