<svg xmlns="http://www.w3.org/2000/svg" viewBox="0 0 564.96 818.26"><defs><style>.cls-1,.cls-3,.cls-7{fill:#231f20;}.cls-1{stroke:#fff;stroke-miterlimit:10;}.cls-2{fill:#fff;}.cls-3{font-size:41.47px;font-family:TitilliumWeb-Light, Titillium Web;}.cls-4{letter-spacing:-0.02em;}.cls-5{letter-spacing:0em;}.cls-6{letter-spacing:0em;}.cls-7{font-size:19.46px;font-family:LibreFranklin-Regular, Libre Franklin;}.cls-8{letter-spacing:-0.11em;}.cls-9{letter-spacing:-0.01em;}.cls-10{letter-spacing:-0.02em;}.cls-11{letter-spacing:-0.01em;}</style></defs><title>web pillow</title><g id="Layer_2" data-name="Layer 2"><g id="Layer_1-2" data-name="Layer 1"><path class="cls-1" d="M16.34,101.86c-2.72,0-4.85,0-7,0s-3.21-.93-3.23-2.58,1.1-2.72,3.16-2.76c4.45-.09,8.89-.12,13.33,0,2.65.06,3.37,1.62,1.81,3.92-2.54,3.75-5.22,7.4-7.84,11.1-.52.74-1,1.51-1.84,2.76,2,0,3.65,0,5.26,0a22.55,22.55,0,0,1,3.59.21,2.57,2.57,0,0,1-.38,5.12c-1.94.09-3.88,0-5.82,0-2.69,0-5.37,0-8.06,0-1.16,0-2.55.32-3.18-1.07s.13-2.47.92-3.56c2.38-3.3,4.72-6.63,7.06-10C14.78,104.17,15.38,103.26,16.34,101.86Z"/><path class="cls-1" d="M14.52,183.33c-2.24,0-4,0-5.75,0s-2.65-.77-2.67-2.13S7,179,8.72,178.91c3.66-.07,7.34-.09,11,0,2.19.06,2.78,1.34,1.5,3.24-2.1,3.1-4.32,6.12-6.48,9.17-.43.61-.83,1.25-1.52,2.27,1.69,0,3,0,4.35,0a18.24,18.24,0,0,1,3,.17,2.13,2.13,0,0,1-.31,4.23c-1.6.08-3.21,0-4.81,0-2.22,0-4.44,0-6.65,0-1,0-2.11.27-2.63-.88s.11-2,.76-2.94c2-2.72,3.89-5.47,5.83-8.22C13.24,185.25,13.74,184.49,14.52,183.33Z"/><path class="cls-1" d="M11.88,260.32c-1.55,0-2.76,0-4,0s-1.83-.53-1.85-1.47.64-1.56,1.81-1.59c2.54-.05,5.08-.06,7.62,0,1.52,0,1.93.93,1,2.25-1.45,2.14-3,4.23-4.48,6.34-.3.43-.58.86-1,1.58,1.17,0,2.09,0,3,0a11.7,11.7,0,0,1,2,.12,1.47,1.47,0,0,1-.22,2.93c-1.1,0-2.22,0-3.33,0-1.53,0-3.06,0-4.6,0-.66,0-1.46.18-1.82-.61s.08-1.41.53-2c1.36-1.88,2.69-3.78,4-5.68C11,261.65,11.34,261.13,11.88,260.32Z"/><path class="cls-1" d="M11.88,332.78c-1.55,0-2.76,0-4,0s-1.83-.53-1.85-1.47.64-1.56,1.81-1.58c2.54-.05,5.08-.07,7.62,0,1.52,0,1.93.92,1,2.24-1.45,2.14-3,4.23-4.48,6.34-.3.43-.58.87-1,1.58,1.17,0,2.09,0,3,0a12.75,12.75,0,0,1,2,.12,1.47,1.47,0,0,1-.22,2.93c-1.1.05-2.22,0-3.33,0-1.53,0-3.06,0-4.6,0-.66,0-1.46.19-1.82-.61s.08-1.41.53-2c1.36-1.89,2.69-3.79,4-5.69C11,334.11,11.34,333.59,11.88,332.78Z"/><path class="cls-1" d="M11.88,405.24c-1.55,0-2.76,0-4,0s-1.83-.53-1.85-1.47.64-1.56,1.81-1.58c2.54-.05,5.08-.07,7.62,0,1.52,0,1.93.92,1,2.24-1.45,2.14-3,4.23-4.48,6.34-.3.43-.58.87-1,1.58,1.17,0,2.09,0,3,0a14,14,0,0,1,2,.12,1.47,1.47,0,0,1-.22,2.93c-1.1.05-2.22,0-3.33,0-1.53,0-3.06,0-4.6,0-.66,0-1.46.19-1.82-.61s.08-1.41.53-2c1.36-1.89,2.69-3.79,4-5.69C11,406.57,11.34,406.05,11.88,405.24Z"/><path class="cls-1" d="M10.75,477.11c-1.26,0-2.24,0-3.22,0S6,476.68,6,475.92s.51-1.26,1.47-1.28c2.05,0,4.1-.05,6.16,0,1.22,0,1.55.75.83,1.81-1.17,1.74-2.41,3.43-3.62,5.13-.24.35-.47.7-.85,1.28h2.43a10.21,10.21,0,0,1,1.66.1,1.19,1.19,0,0,1-.18,2.36c-.89.05-1.79,0-2.69,0-1.24,0-2.48,0-3.72,0-.54,0-1.18.15-1.47-.5s.06-1.14.42-1.64c1.1-1.53,2.18-3.07,3.27-4.6Z"/><path class="cls-1" d="M10.75,547c-1.26,0-2.24,0-3.22,0S6,546.6,6,545.84s.51-1.26,1.47-1.28c2.05,0,4.1,0,6.16,0,1.22,0,1.55.75.83,1.81-1.17,1.74-2.41,3.43-3.62,5.14-.24.34-.47.69-.85,1.27h2.43a10.21,10.21,0,0,1,1.66.1,1.19,1.19,0,0,1-.18,2.37c-.89,0-1.79,0-2.69,0H7.52c-.54,0-1.18.15-1.47-.5s.06-1.14.42-1.64c1.1-1.53,2.18-3.07,3.27-4.6C10,548.11,10.31,547.68,10.75,547Z"/><path class="cls-1" d="M10.75,617c-1.26,0-2.24,0-3.22,0S6,616.52,6,615.76s.51-1.26,1.47-1.28c2.05,0,4.1-.05,6.16,0,1.22,0,1.55.75.83,1.82-1.17,1.73-2.41,3.42-3.62,5.13-.24.34-.47.69-.85,1.27h2.43a10.21,10.21,0,0,1,1.66.1,1.19,1.19,0,0,1-.18,2.37c-.89,0-1.79,0-2.69,0q-1.86,0-3.72,0c-.54,0-1.18.15-1.47-.5s.06-1.14.42-1.64c1.1-1.53,2.18-3.07,3.27-4.6C10,618,10.31,617.6,10.75,617Z"/><path class="cls-1" d="M9.59,686.27H7.15c-.75,0-1.13-.33-1.14-.9s.39-1,1.11-1c1.56,0,3.12,0,4.68,0,.93,0,1.19.57.64,1.38-.89,1.32-1.84,2.6-2.75,3.9-.19.26-.36.53-.65,1h1.85a8.79,8.79,0,0,1,1.26.07.88.88,0,0,1,.77,1,.87.87,0,0,1-.91.83c-.68,0-1.36,0-2,0H7.14c-.41,0-.9.11-1.12-.38s.05-.86.33-1.24c.83-1.16,1.65-2.33,2.48-3.5C9.05,687.09,9.26,686.77,9.59,686.27Z"/><path class="cls-1" d="M9.59,753.61H7.15c-.75,0-1.13-.33-1.14-.9s.39-1,1.11-1c1.56,0,3.12,0,4.68,0,.93,0,1.19.57.64,1.38-.89,1.32-1.84,2.6-2.75,3.9-.19.26-.36.53-.65,1h1.85a8.79,8.79,0,0,1,1.26.07.88.88,0,0,1,.77,1,.87.87,0,0,1-.91.83c-.68,0-1.36,0-2,0H7.14c-.41,0-.9.11-1.12-.38s.05-.86.33-1.24c.83-1.16,1.65-2.33,2.48-3.5C9.05,754.43,9.26,754.11,9.59,753.61Z"/><path class="cls-1" d="M8.85,791.72H6.9c-.59,0-.9-.26-.9-.72s.31-.76.88-.78c1.24,0,2.49,0,3.73,0,.74,0,.94.46.51,1.1-.71,1-1.46,2.07-2.2,3.11l-.51.77H9.88a6.55,6.55,0,0,1,1,.06.72.72,0,0,1-.1,1.43c-.54,0-1.09,0-1.63,0H6.9c-.33,0-.72.09-.89-.3s0-.69.25-1c.67-.92,1.32-1.85,2-2.78Z"/><path class="cls-1" d="M33.64,112.14c-2.72,0-4.84,0-7,0s-3.21-.92-3.24-2.57,1.11-2.73,3.17-2.77c4.44-.09,8.88-.11,13.32,0,2.66.07,3.37,1.62,1.81,3.93-2.53,3.75-5.22,7.4-7.83,11.1-.53.74-1,1.51-1.85,2.75,2,0,3.65,0,5.26,0a21.44,21.44,0,0,1,3.59.21,2.57,2.57,0,0,1-.37,5.12c-1.94.09-3.89,0-5.83,0-2.69,0-5.37,0-8,0-1.17,0-2.56.32-3.19-1.08s.14-2.46.92-3.55c2.38-3.3,4.72-6.63,7.07-10C32.08,114.46,32.69,113.55,33.64,112.14Z"/><path class="cls-1" d="M31.83,193.62c-2.25,0-4,0-5.75,0s-2.65-.76-2.67-2.12.91-2.26,2.61-2.29c3.67-.07,7.34-.09,11,0,2.19.06,2.79,1.34,1.5,3.24-2.1,3.1-4.31,6.11-6.47,9.17-.44.61-.84,1.24-1.53,2.27,1.69,0,3,0,4.35,0a18.18,18.18,0,0,1,3,.17,2.13,2.13,0,0,1-.31,4.23c-1.6.07-3.21,0-4.81,0-2.22,0-4.43,0-6.65,0-1,0-2.11.26-2.63-.89s.11-2,.76-2.93c2-2.73,3.9-5.48,5.83-8.22C30.54,195.53,31,194.78,31.83,193.62Z"/><path class="cls-1" d="M29.19,270.61c-1.56,0-2.77,0-4,0s-1.84-.53-1.85-1.47.63-1.56,1.81-1.58c2.53-.05,5.08-.06,7.61,0,1.52,0,1.93.93,1,2.24-1.45,2.15-3,4.23-4.48,6.35-.3.42-.58.86-1.06,1.57,1.17,0,2.09,0,3,0a11.64,11.64,0,0,1,2.05.12,1.47,1.47,0,0,1-.21,2.92c-1.11.05-2.22,0-3.33,0-1.54,0-3.07,0-4.61,0-.66,0-1.46.18-1.82-.62s.08-1.4.53-2c1.36-1.88,2.7-3.79,4-5.69C28.3,271.93,28.64,271.41,29.19,270.61Z"/><path class="cls-1" d="M29.19,343.07c-1.56,0-2.77,0-4,0s-1.84-.54-1.85-1.48S24,340,25.17,340c2.53-.05,5.08-.06,7.61,0,1.52,0,1.93.93,1,2.24-1.45,2.15-3,4.24-4.48,6.35-.3.42-.58.86-1.06,1.57,1.17,0,2.09,0,3,0a11.64,11.64,0,0,1,2.05.12,1.47,1.47,0,0,1-.21,2.92c-1.11.06-2.22,0-3.33,0-1.54,0-3.07,0-4.61,0-.66,0-1.46.18-1.82-.61s.08-1.41.53-2c1.36-1.88,2.7-3.79,4-5.69C28.3,344.39,28.64,343.87,29.19,343.07Z"/><path class="cls-1" d="M29.19,415.53c-1.56,0-2.77,0-4,0s-1.84-.53-1.85-1.48.63-1.55,1.81-1.58c2.53-.05,5.08-.06,7.61,0,1.52,0,1.93.93,1,2.25-1.45,2.14-3,4.23-4.48,6.34-.3.43-.58.86-1.06,1.57,1.17,0,2.09,0,3,0a11.64,11.64,0,0,1,2.05.12,1.47,1.47,0,0,1-.21,2.92c-1.11.06-2.22,0-3.33,0-1.54,0-3.07,0-4.61,0-.66,0-1.46.18-1.82-.61s.08-1.41.53-2c1.36-1.88,2.7-3.78,4-5.68C28.3,416.86,28.64,416.33,29.19,415.53Z"/><path class="cls-1" d="M28.05,487.4c-1.26,0-2.24,0-3.22,0s-1.48-.43-1.49-1.19.51-1.26,1.46-1.28c2.05,0,4.11-.06,6.16,0,1.22,0,1.56.75.84,1.81-1.18,1.73-2.42,3.42-3.63,5.13l-.85,1.27c.94,0,1.69,0,2.43,0a10.15,10.15,0,0,1,1.66.09,1.16,1.16,0,0,1,1,1.27,1.14,1.14,0,0,1-1.19,1.1c-.9,0-1.8,0-2.7,0-1.24,0-2.48,0-3.72,0-.54,0-1.18.15-1.47-.49s.06-1.14.43-1.65c1.1-1.52,2.18-3.06,3.26-4.6C27.33,488.47,27.61,488.05,28.05,487.4Z"/><path class="cls-1" d="M28.05,557.32H24.83c-1,0-1.48-.43-1.49-1.19s.51-1.26,1.46-1.28c2.05,0,4.11-.05,6.16,0,1.22,0,1.56.75.84,1.81-1.18,1.73-2.42,3.42-3.63,5.13-.24.35-.47.7-.85,1.28.94,0,1.69,0,2.43,0a10.14,10.14,0,0,1,1.66.1,1.19,1.19,0,0,1-.17,2.36c-.9,0-1.8,0-2.7,0H24.82c-.54,0-1.18.14-1.47-.5s.06-1.14.43-1.65c1.1-1.52,2.18-3.06,3.26-4.6C27.33,558.39,27.61,558,28.05,557.32Z"/><path class="cls-1" d="M28.05,627.24c-1.26,0-2.24,0-3.22,0s-1.48-.43-1.49-1.19.51-1.26,1.46-1.28c2.05,0,4.11,0,6.16,0,1.22,0,1.56.75.84,1.81-1.18,1.74-2.42,3.42-3.63,5.13-.24.35-.47.7-.85,1.28h2.43a10.14,10.14,0,0,1,1.66.1,1.19,1.19,0,0,1-.17,2.36c-.9,0-1.8,0-2.7,0H24.82c-.54,0-1.18.14-1.47-.5s.06-1.14.43-1.64c1.1-1.53,2.18-3.07,3.26-4.6Z"/><path class="cls-1" d="M26.9,696.56c-1,0-1.71,0-2.45,0s-1.13-.33-1.14-.91.39-1,1.12-1c1.56,0,3.12,0,4.68,0,.93,0,1.18.57.63,1.38-.89,1.32-1.83,2.6-2.75,3.9-.19.26-.36.53-.65,1h1.85a7.55,7.55,0,0,1,1.26.07.9.9,0,0,1-.13,1.8c-.68,0-1.37,0-2.05,0-.94,0-1.88,0-2.83,0-.41,0-.89.11-1.12-.38s.05-.86.33-1.25l2.48-3.49Z"/><path class="cls-1" d="M26.9,763.9H24.45c-.75,0-1.13-.33-1.14-.91s.39-1,1.12-1c1.56,0,3.12,0,4.68,0,.93,0,1.18.57.63,1.38-.89,1.32-1.83,2.6-2.75,3.9-.19.26-.36.53-.65,1h1.85a7.55,7.55,0,0,1,1.26.07.9.9,0,0,1-.13,1.8c-.68,0-1.37,0-2.05,0H24.44c-.41,0-.89.11-1.12-.38s.05-.86.33-1.25L26.13,765Z"/><path class="cls-1" d="M26.15,802H24.2q-.89,0-.9-.72c0-.45.31-.77.89-.78,1.24,0,2.48,0,3.72,0,.74,0,.95.45.51,1.1-.71,1-1.46,2.07-2.19,3.1-.15.21-.29.43-.52.77h1.47a5.65,5.65,0,0,1,1,0,.7.7,0,0,1,.61.77.69.69,0,0,1-.72.67c-.54,0-1.09,0-1.63,0H24.2c-.33,0-.72.08-.89-.31s0-.69.26-1c.66-.92,1.32-1.85,2-2.78C25.72,802.66,25.89,802.4,26.15,802Z"/><path class="cls-1" d="M52.19,122.91c-2.72,0-4.84,0-7,0S42,122,42,120.33s1.11-2.73,3.17-2.77c4.44-.09,8.89-.11,13.33,0,2.65.07,3.37,1.62,1.81,3.92-2.54,3.76-5.23,7.41-7.84,11.11-.53.74-1,1.51-1.85,2.75,2,0,3.66,0,5.27,0a21.38,21.38,0,0,1,3.58.21,2.57,2.57,0,0,1-.37,5.12c-1.94.09-3.89,0-5.83,0-2.68,0-5.37,0-8,0-1.16,0-2.56.31-3.19-1.08s.14-2.46.93-3.56c2.38-3.29,4.71-6.62,7.06-9.95C50.64,125.23,51.24,124.32,52.19,122.91Z"/><path class="cls-1" d="M50.38,204.39c-2.25,0-4,0-5.75,0S42,203.61,42,202.25s.91-2.25,2.61-2.28c3.67-.07,7.34-.09,11,0,2.19.06,2.78,1.34,1.49,3.24-2.09,3.1-4.31,6.11-6.47,9.17-.43.61-.84,1.24-1.53,2.27,1.69,0,3,0,4.35,0a18.18,18.18,0,0,1,3,.18,2.13,2.13,0,0,1-.31,4.23c-1.6.07-3.2,0-4.81,0-2.21,0-4.43,0-6.65,0-1,0-2.1.26-2.63-.89s.12-2,.77-2.93c2-2.73,3.89-5.48,5.83-8.22C49.1,206.3,49.59,205.55,50.38,204.39Z"/><path class="cls-1" d="M47.74,281.38c-1.56,0-2.77,0-4,0s-1.84-.53-1.85-1.47.63-1.56,1.81-1.58c2.54-.05,5.08-.07,7.62,0,1.51,0,1.92.93,1,2.24-1.45,2.15-3,4.23-4.48,6.35-.3.42-.58.86-1.06,1.57h3a13.86,13.86,0,0,1,2,.12,1.47,1.47,0,0,1-.21,2.93c-1.11.05-2.22,0-3.33,0-1.53,0-3.07,0-4.6,0-.67,0-1.46.18-1.82-.62s.07-1.41.52-2c1.36-1.89,2.7-3.79,4-5.69C46.85,282.7,47.19,282.18,47.74,281.38Z"/><path class="cls-1" d="M47.74,353.84c-1.56,0-2.77,0-4,0s-1.84-.53-1.85-1.47.63-1.56,1.81-1.58c2.54,0,5.08-.06,7.62,0,1.51,0,1.92.93,1,2.24-1.45,2.15-3,4.23-4.48,6.35-.3.42-.58.86-1.06,1.57,1.17,0,2.09,0,3,0a12.63,12.63,0,0,1,2,.11,1.47,1.47,0,0,1-.21,2.93c-1.11.05-2.22,0-3.33,0-1.53,0-3.07,0-4.6,0-.67,0-1.46.18-1.82-.62s.07-1.41.52-2c1.36-1.88,2.7-3.79,4-5.69C46.85,355.16,47.19,354.64,47.74,353.84Z"/><path class="cls-1" d="M47.74,426.3c-1.56,0-2.77,0-4,0s-1.84-.53-1.85-1.47.63-1.56,1.81-1.58c2.54-.05,5.08-.06,7.62,0,1.51,0,1.92.93,1,2.24-1.45,2.15-3,4.23-4.48,6.35-.3.42-.58.86-1.06,1.57,1.17,0,2.09,0,3,0a11.59,11.59,0,0,1,2,.12,1.47,1.47,0,0,1-.21,2.92c-1.11.05-2.22,0-3.33,0-1.53,0-3.07,0-4.6,0-.67,0-1.46.18-1.82-.61s.07-1.41.52-2c1.36-1.88,2.7-3.79,4-5.69C46.85,427.62,47.19,427.1,47.74,426.3Z"/><path class="cls-1" d="M46.6,498.17c-1.25,0-2.24,0-3.22,0s-1.48-.43-1.49-1.19.51-1.26,1.46-1.28c2,0,4.11-.05,6.16,0,1.23,0,1.56.75.84,1.82-1.17,1.73-2.42,3.42-3.62,5.13-.25.34-.47.7-.86,1.27,1,0,1.69,0,2.44,0A10.08,10.08,0,0,1,50,504a1.19,1.19,0,0,1-.17,2.37c-.9,0-1.8,0-2.69,0-1.24,0-2.48,0-3.73,0-.53,0-1.18.15-1.47-.49s.06-1.14.43-1.65c1.1-1.52,2.18-3.06,3.26-4.6C45.88,499.24,46.16,498.82,46.6,498.17Z"/><path class="cls-1" d="M46.6,568.09c-1.25,0-2.24,0-3.22,0s-1.48-.42-1.49-1.19.51-1.26,1.46-1.27c2,0,4.11-.06,6.16,0,1.23,0,1.56.74.84,1.81-1.17,1.73-2.42,3.42-3.62,5.13-.25.34-.47.7-.86,1.27,1,0,1.69,0,2.44,0a10.08,10.08,0,0,1,1.65.09,1.19,1.19,0,0,1-.17,2.37c-.9,0-1.8,0-2.69,0-1.24,0-2.48,0-3.73,0-.53,0-1.18.15-1.47-.49s.06-1.14.43-1.65c1.1-1.52,2.18-3.06,3.26-4.6C45.88,569.16,46.16,568.74,46.6,568.09Z"/><path class="cls-1" d="M46.6,638H43.38c-1,0-1.48-.43-1.49-1.19s.51-1.27,1.46-1.28c2,0,4.11-.06,6.16,0,1.23,0,1.56.75.84,1.81-1.17,1.73-2.42,3.42-3.62,5.13-.25.34-.47.7-.86,1.27,1,0,1.69,0,2.44,0a10.08,10.08,0,0,1,1.65.09,1.15,1.15,0,0,1,1,1.27,1.14,1.14,0,0,1-1.19,1.1c-.9,0-1.8,0-2.69,0-1.24,0-2.48,0-3.73,0-.53,0-1.18.15-1.47-.49s.06-1.14.43-1.65c1.1-1.52,2.18-3.06,3.26-4.6C45.88,639.08,46.16,638.66,46.6,638Z"/><path class="cls-1" d="M45.45,707.33c-1,0-1.7,0-2.45,0s-1.12-.32-1.13-.9.39-1,1.11-1c1.56,0,3.12,0,4.68,0,.93,0,1.18.57.63,1.38-.89,1.31-1.83,2.6-2.75,3.9-.18.26-.35.53-.65,1,.72,0,1.29,0,1.85,0a6.61,6.61,0,0,1,1.26.07.9.9,0,0,1-.13,1.8c-.68,0-1.36,0-2,0H43c-.41,0-.9.11-1.12-.38s0-.87.32-1.25c.84-1.16,1.66-2.33,2.48-3.5Z"/><path class="cls-1" d="M45.45,774.67c-1,0-1.7,0-2.45,0s-1.12-.32-1.13-.9.39-1,1.11-1c1.56,0,3.12,0,4.68,0,.93,0,1.18.57.63,1.38-.89,1.31-1.83,2.6-2.75,3.9-.18.26-.35.53-.65,1,.72,0,1.29,0,1.85,0a6.61,6.61,0,0,1,1.26.07.9.9,0,0,1-.13,1.8c-.68,0-1.36,0-2,0H43c-.41,0-.9.11-1.12-.38s0-.87.32-1.25c.84-1.16,1.66-2.33,2.48-3.5C44.9,775.48,45.11,775.16,45.45,774.67Z"/><path class="cls-1" d="M9.59,725.5c-.95,0-1.7,0-2.44,0S6,725.17,6,724.59s.39-1,1.11-1c1.56,0,3.12,0,4.68,0,.93,0,1.19.57.64,1.37-.89,1.32-1.84,2.6-2.75,3.9-.19.26-.36.53-.65,1h1.85a7.55,7.55,0,0,1,1.26.08.9.9,0,0,1-.14,1.8c-.68,0-1.36,0-2,0H7.14c-.41,0-.9.11-1.12-.38s.05-.87.33-1.25c.83-1.16,1.65-2.33,2.48-3.5C9.05,726.31,9.26,726,9.59,725.5Z"/><path class="cls-1" d="M26.9,735.78H24.45c-.75,0-1.13-.33-1.14-.9s.39-1,1.12-1c1.56,0,3.12,0,4.68,0,.93,0,1.18.57.63,1.38-.89,1.32-1.83,2.6-2.75,3.9-.19.26-.36.53-.65,1h1.85a8.79,8.79,0,0,1,1.26.07.9.9,0,0,1-.13,1.8c-.68,0-1.37,0-2.05,0H24.44c-.41,0-.89.11-1.12-.38s.05-.86.33-1.24c.83-1.16,1.65-2.33,2.48-3.5C26.35,736.6,26.56,736.28,26.9,735.78Z"/><path class="cls-1" d="M45.45,746.55H43c-.75,0-1.12-.33-1.13-.91s.39-.95,1.11-1c1.56,0,3.12,0,4.68,0,.93,0,1.18.57.63,1.38-.89,1.32-1.83,2.6-2.75,3.9l-.65,1h1.85A8.79,8.79,0,0,1,48,751a.9.9,0,0,1-.13,1.8c-.68,0-1.36,0-2,0H43c-.41,0-.9.11-1.12-.38s0-.86.32-1.25c.84-1.16,1.66-2.32,2.48-3.49Z"/><path class="cls-1" d="M44.71,812.78h-2c-.6,0-.9-.26-.91-.72s.31-.76.89-.77c1.24,0,2.48,0,3.73,0,.74,0,.94.45.5,1.1-.71,1-1.46,2.07-2.19,3.1-.15.21-.28.42-.52.77h1.48a6.71,6.71,0,0,1,1,.06.72.72,0,0,1-.11,1.44c-.54,0-1.08,0-1.63,0H42.75c-.32,0-.71.09-.89-.3s0-.69.26-1l2-2.79Z"/><path class="cls-1" d="M519.13,13.3c-2.72,0-4.85,0-7,0s-3.21-.93-3.23-2.58S510,8,512.09,8c4.44-.09,8.89-.11,13.33,0,2.65.07,3.37,1.62,1.81,3.93-2.54,3.75-5.22,7.4-7.84,11.1-.52.74-1,1.51-1.85,2.75,2.05,0,3.66,0,5.27,0a21.44,21.44,0,0,1,3.59.21,2.57,2.57,0,0,1-.38,5.12c-1.94.09-3.88,0-5.83,0-2.68,0-5.36,0-8.05,0-1.16,0-2.55.32-3.18-1.08s.13-2.46.92-3.55c2.38-3.3,4.72-6.63,7.06-10C517.57,15.62,518.17,14.71,519.13,13.3Z"/><path class="cls-1" d="M517.31,94.78c-2.24,0-4,0-5.75,0s-2.65-.76-2.67-2.12.92-2.25,2.62-2.29c3.66-.07,7.33-.09,11,0,2.19.06,2.78,1.34,1.5,3.24-2.1,3.1-4.32,6.11-6.48,9.17-.43.61-.83,1.25-1.52,2.27,1.69,0,3,0,4.35,0a18.31,18.31,0,0,1,3,.17,2.13,2.13,0,0,1-.31,4.23c-1.6.07-3.21,0-4.81,0-2.22,0-4.44,0-6.65,0-1,0-2.11.27-2.63-.89s.11-2,.76-2.93c2-2.73,3.89-5.48,5.83-8.22C516,96.69,516.53,95.94,517.31,94.78Z"/><path class="cls-1" d="M514.67,171.77c-1.55,0-2.77,0-4,0s-1.83-.53-1.85-1.47.64-1.56,1.81-1.58c2.54-.05,5.08-.06,7.62,0,1.51,0,1.92.93,1,2.24-1.45,2.15-3,4.23-4.48,6.35-.3.42-.58.86-1.05,1.57,1.17,0,2.09,0,3,0a11.7,11.7,0,0,1,2.05.12,1.47,1.47,0,0,1-.22,2.92c-1.1.05-2.22,0-3.33,0-1.53,0-3.07,0-4.6,0-.66,0-1.46.18-1.82-.61s.08-1.41.53-2c1.36-1.88,2.69-3.79,4-5.69C513.78,173.09,514.13,172.57,514.67,171.77Z"/><path class="cls-1" d="M514.67,244.23c-1.55,0-2.77,0-4,0s-1.83-.54-1.85-1.48.64-1.55,1.81-1.58c2.54,0,5.08-.06,7.62,0,1.51,0,1.92.93,1,2.25-1.45,2.14-3,4.23-4.48,6.34-.3.42-.58.86-1.05,1.57,1.17,0,2.09,0,3,0a11.7,11.7,0,0,1,2.05.12,1.47,1.47,0,0,1-.22,2.92c-1.1.06-2.22,0-3.33,0-1.53,0-3.07,0-4.6,0-.66,0-1.46.18-1.82-.61s.08-1.41.53-2c1.36-1.88,2.69-3.79,4-5.68C513.78,245.56,514.13,245,514.67,244.23Z"/><path class="cls-1" d="M514.67,316.69c-1.55,0-2.77,0-4,0s-1.83-.53-1.85-1.47.64-1.56,1.81-1.59c2.54-.05,5.08-.06,7.62,0,1.51,0,1.92.93,1,2.25-1.45,2.14-3,4.23-4.48,6.34-.3.43-.58.86-1.05,1.58,1.17,0,2.09,0,3,0a11.7,11.7,0,0,1,2.05.12,1.47,1.47,0,0,1-.22,2.93c-1.1,0-2.22,0-3.33,0-1.53,0-3.07,0-4.6,0-.66,0-1.46.18-1.82-.61s.08-1.41.53-2c1.36-1.89,2.69-3.79,4-5.69C513.78,318,514.13,317.5,514.67,316.69Z"/><path class="cls-1" d="M513.54,388.56h-3.22c-1,0-1.49-.43-1.5-1.19s.51-1.26,1.47-1.28c2.05,0,4.1,0,6.16,0,1.22,0,1.55.75.83,1.81-1.17,1.73-2.41,3.42-3.62,5.13-.24.35-.47.7-.85,1.28.94,0,1.68,0,2.43,0a9.2,9.2,0,0,1,1.66.1,1.19,1.19,0,0,1-.18,2.36c-.89,0-1.79,0-2.69,0h-3.72c-.54,0-1.18.14-1.47-.5s.06-1.14.42-1.65c1.1-1.52,2.18-3.06,3.27-4.6C512.82,389.63,513.09,389.21,513.54,388.56Z"/><path class="cls-1" d="M513.54,458.48h-3.22c-1,0-1.49-.43-1.5-1.19s.51-1.26,1.47-1.28c2.05,0,4.1-.05,6.16,0,1.22,0,1.55.75.83,1.81-1.17,1.74-2.41,3.42-3.62,5.13-.24.35-.47.7-.85,1.28h2.43a10.21,10.21,0,0,1,1.66.1,1.19,1.19,0,0,1-.18,2.36c-.89.05-1.79,0-2.69,0-1.24,0-2.48,0-3.72,0-.54,0-1.18.14-1.47-.5s.06-1.14.42-1.64c1.1-1.53,2.18-3.07,3.27-4.61C512.82,459.55,513.09,459.13,513.54,458.48Z"/><path class="cls-1" d="M513.54,528.4c-1.26,0-2.24,0-3.22,0s-1.49-.43-1.5-1.19.51-1.26,1.47-1.28c2.05,0,4.1,0,6.16,0,1.22,0,1.55.75.83,1.81-1.17,1.74-2.41,3.42-3.62,5.13-.24.35-.47.7-.85,1.28h2.43a10.21,10.21,0,0,1,1.66.1,1.19,1.19,0,0,1-.18,2.36c-.89,0-1.79,0-2.69,0h-3.72c-.54,0-1.18.14-1.47-.5s.06-1.14.42-1.64c1.1-1.53,2.18-3.07,3.27-4.6C512.82,529.47,513.09,529.05,513.54,528.4Z"/><path class="cls-1" d="M512.38,597.72h-2.44c-.75,0-1.13-.33-1.14-.91s.39-.95,1.11-1c1.56,0,3.12,0,4.68,0,.93,0,1.19.57.64,1.38-.89,1.32-1.84,2.6-2.75,3.9-.19.26-.36.53-.65,1h1.85a8.79,8.79,0,0,1,1.26.07.9.9,0,0,1-.14,1.8c-.68,0-1.36,0-2,0h-2.83c-.41,0-.9.11-1.12-.38s.05-.86.32-1.25c.84-1.16,1.66-2.32,2.48-3.49C511.84,598.53,512.05,598.21,512.38,597.72Z"/><path class="cls-1" d="M512.38,665.06c-.95,0-1.7,0-2.44,0s-1.13-.33-1.14-.91.39-.95,1.11-1c1.56,0,3.12,0,4.68,0,.93,0,1.19.57.64,1.38-.89,1.32-1.84,2.6-2.75,3.9-.19.26-.36.53-.65,1h1.85a8.79,8.79,0,0,1,1.26.07.9.9,0,0,1-.14,1.8c-.68,0-1.36,0-2,0-.95,0-1.89,0-2.83,0-.41,0-.9.11-1.12-.38s.05-.86.32-1.25c.84-1.16,1.66-2.32,2.48-3.49C511.84,665.87,512.05,665.55,512.38,665.06Z"/><path class="cls-1" d="M511.64,707.17h-1.95c-.6,0-.9-.26-.9-.72s.31-.77.88-.78c1.24,0,2.49,0,3.73,0,.74,0,.94.46.51,1.1-.71,1.05-1.46,2.07-2.2,3.1l-.51.78h1.47a4.76,4.76,0,0,1,1,.06.72.72,0,0,1-.1,1.43c-.54,0-1.09,0-1.63,0h-2.25c-.33,0-.72.09-.9-.3s0-.69.26-1c.67-.92,1.32-1.85,2-2.78Z"/><path class="cls-1" d="M536.43,23.59c-2.72,0-4.84,0-7,0s-3.21-.93-3.24-2.57,1.11-2.73,3.17-2.77c4.44-.09,8.88-.11,13.32,0,2.65.07,3.37,1.62,1.81,3.92-2.53,3.75-5.22,7.41-7.84,11.11-.52.74-1,1.51-1.84,2.75,2,0,3.65,0,5.26,0a21.44,21.44,0,0,1,3.59.21,2.57,2.57,0,0,1-.37,5.12c-1.94.09-3.89,0-5.83,0-2.69,0-5.37,0-8,0-1.17,0-2.56.31-3.19-1.08s.14-2.47.92-3.56c2.38-3.3,4.72-6.63,7.06-9.95C534.87,25.91,535.47,25,536.43,23.59Z"/><path class="cls-1" d="M534.62,105.07c-2.25,0-4,0-5.75,0s-2.65-.77-2.67-2.13.91-2.25,2.61-2.28c3.67-.07,7.34-.09,11,0,2.19,0,2.78,1.34,1.5,3.24-2.1,3.1-4.31,6.11-6.47,9.16-.44.62-.84,1.25-1.53,2.28,1.69,0,3,0,4.35,0a18.25,18.25,0,0,1,3,.18,2.12,2.12,0,0,1-.31,4.22c-1.6.08-3.21,0-4.81,0-2.22,0-4.43,0-6.65,0-1,0-2.11.26-2.63-.89s.11-2,.76-2.94c2-2.72,3.9-5.47,5.83-8.21C533.33,107,533.83,106.23,534.62,105.07Z"/><path class="cls-1" d="M532,182.06c-1.56,0-2.77,0-4,0s-1.84-.53-1.85-1.47S526.78,179,528,179c2.53-.05,5.07-.07,7.61,0,1.52,0,1.93.93,1,2.24-1.45,2.14-3,4.23-4.48,6.35-.3.42-.58.86-1.06,1.57h3a13.94,13.94,0,0,1,2,.12,1.47,1.47,0,0,1-.21,2.93c-1.11,0-2.22,0-3.33,0-1.54,0-3.07,0-4.61,0-.66,0-1.46.18-1.82-.62s.08-1.41.53-2c1.36-1.89,2.7-3.79,4-5.69C531.09,183.38,531.43,182.86,532,182.06Z"/><path class="cls-1" d="M532,254.52c-1.56,0-2.77,0-4,0s-1.84-.53-1.85-1.47.63-1.56,1.81-1.58c2.53-.05,5.07-.06,7.61,0,1.52,0,1.93.93,1,2.24-1.45,2.15-3,4.23-4.48,6.35-.3.42-.58.86-1.06,1.57,1.17,0,2.09,0,3,0a12.69,12.69,0,0,1,2,.11,1.47,1.47,0,0,1-.21,2.93c-1.11.05-2.22,0-3.33,0-1.54,0-3.07,0-4.61,0-.66,0-1.46.18-1.82-.62s.08-1.41.53-2c1.36-1.89,2.7-3.79,4-5.69C531.09,255.84,531.43,255.32,532,254.52Z"/><path class="cls-1" d="M532,327c-1.56,0-2.77,0-4,0s-1.84-.53-1.85-1.47.63-1.56,1.81-1.58c2.53-.05,5.07-.06,7.61,0,1.52,0,1.93.93,1,2.24-1.45,2.15-3,4.23-4.48,6.35-.3.42-.58.86-1.06,1.57,1.17,0,2.09,0,3,0a11.64,11.64,0,0,1,2,.12,1.47,1.47,0,0,1-.21,2.92c-1.11.05-2.22,0-3.33,0-1.54,0-3.07,0-4.61,0-.66,0-1.46.18-1.82-.62s.08-1.4.53-2c1.36-1.88,2.7-3.79,4-5.69C531.09,328.3,531.43,327.78,532,327Z"/><path class="cls-1" d="M530.84,398.85c-1.26,0-2.24,0-3.22,0s-1.48-.43-1.49-1.19.51-1.26,1.46-1.28c2,0,4.11-.05,6.16,0,1.22,0,1.56.75.84,1.82-1.18,1.73-2.42,3.42-3.63,5.13-.24.34-.47.7-.85,1.27.94,0,1.69,0,2.43,0a10.15,10.15,0,0,1,1.66.09,1.19,1.19,0,0,1-.17,2.37c-.9,0-1.8,0-2.7,0-1.24,0-2.48,0-3.72,0-.54,0-1.18.15-1.47-.49s.06-1.14.42-1.65c1.1-1.52,2.19-3.06,3.27-4.6C530.12,399.92,530.4,399.5,530.84,398.85Z"/><path class="cls-1" d="M530.84,468.77c-1.26,0-2.24,0-3.22,0s-1.48-.43-1.49-1.19.51-1.26,1.46-1.28c2,0,4.11-.05,6.16,0,1.22,0,1.56.75.84,1.82-1.18,1.73-2.42,3.42-3.63,5.13-.24.34-.47.7-.85,1.27.94,0,1.69,0,2.43,0a10.15,10.15,0,0,1,1.66.09A1.19,1.19,0,0,1,534,477c-.9,0-1.8,0-2.7,0-1.24,0-2.48,0-3.72,0-.54,0-1.18.15-1.47-.49s.06-1.14.42-1.65c1.1-1.52,2.19-3.06,3.27-4.6C530.12,469.84,530.4,469.42,530.84,468.77Z"/><path class="cls-1" d="M530.84,538.69c-1.26,0-2.24,0-3.22,0s-1.48-.42-1.49-1.19.51-1.26,1.46-1.27c2-.05,4.11-.06,6.16,0,1.22,0,1.56.75.84,1.81-1.18,1.73-2.42,3.42-3.63,5.13-.24.34-.47.7-.85,1.27.94,0,1.69,0,2.43,0a10.15,10.15,0,0,1,1.66.09,1.19,1.19,0,0,1-.17,2.37c-.9,0-1.8,0-2.7,0-1.24,0-2.48,0-3.72,0-.54,0-1.18.15-1.47-.49s.06-1.14.42-1.65c1.1-1.52,2.19-3.06,3.27-4.6C530.12,539.76,530.4,539.34,530.84,538.69Z"/><path class="cls-1" d="M529.69,608c-1,0-1.71,0-2.45,0s-1.13-.32-1.14-.9.39-1,1.12-1c1.55,0,3.12,0,4.68,0,.93,0,1.18.57.63,1.38-.89,1.31-1.83,2.6-2.75,3.89-.19.27-.36.54-.65,1H531a7.55,7.55,0,0,1,1.26.08.9.9,0,0,1-.13,1.8c-.68,0-1.37,0-2.05,0h-2.83c-.41,0-.89.11-1.12-.38s0-.87.33-1.25c.83-1.16,1.65-2.33,2.48-3.5C529.14,608.82,529.35,608.5,529.69,608Z"/><path class="cls-1" d="M529.69,675.35c-1,0-1.71,0-2.45,0s-1.13-.32-1.14-.9.39-1,1.12-1c1.55,0,3.12,0,4.68,0,.93,0,1.18.57.63,1.38-.89,1.31-1.83,2.6-2.75,3.89-.19.27-.36.54-.65,1H531a7.55,7.55,0,0,1,1.26.08.9.9,0,0,1-.13,1.8c-.68,0-1.37,0-2.05,0h-2.83c-.41,0-.89.11-1.12-.38s0-.87.33-1.25c.83-1.16,1.65-2.33,2.48-3.5Z"/><path class="cls-1" d="M528.94,717.46h-2c-.59,0-.89-.26-.9-.72s.31-.76.89-.77q1.86,0,3.72,0c.74,0,.94.45.51,1.1-.71,1.05-1.46,2.07-2.19,3.1-.15.21-.29.42-.52.77H530a6.77,6.77,0,0,1,1,.06.7.7,0,0,1,.61.77.68.68,0,0,1-.72.66c-.54,0-1.09,0-1.63,0H527c-.33,0-.72.09-.89-.3s0-.69.26-1l2-2.79C528.51,718.1,528.67,717.85,528.94,717.46Z"/><path class="cls-1" d="M555,34.36c-2.72,0-4.84,0-7,0s-3.21-.93-3.24-2.57S545.89,29.05,548,29c4.44-.09,8.89-.11,13.33,0,2.65.07,3.37,1.62,1.81,3.92-2.54,3.75-5.23,7.4-7.84,11.1-.53.75-1,1.51-1.85,2.76,2,0,3.66,0,5.27,0a22.49,22.49,0,0,1,3.58.2,2.57,2.57,0,0,1-.37,5.12c-1.94.1-3.89,0-5.83,0-2.68,0-5.37,0-8,0-1.17,0-2.56.32-3.19-1.07s.14-2.47.93-3.56c2.38-3.3,4.71-6.63,7.06-10C553.43,36.68,554,35.76,555,34.36Z"/><path class="cls-1" d="M553.17,115.83c-2.25,0-4,0-5.75,0s-2.65-.77-2.67-2.13.91-2.25,2.61-2.28c3.67-.08,7.34-.1,11,0,2.19,0,2.78,1.34,1.49,3.24-2.09,3.09-4.31,6.11-6.47,9.16-.43.62-.84,1.25-1.53,2.28,1.69,0,3,0,4.35,0a19.37,19.37,0,0,1,3,.17,2.13,2.13,0,0,1-.31,4.23c-1.6.08-3.2,0-4.81,0-2.21,0-4.43,0-6.65,0-1,0-2.11.26-2.63-.89s.12-2,.77-2.94c2-2.72,3.89-5.47,5.83-8.22C551.89,117.75,552.38,117,553.17,115.83Z"/><path class="cls-1" d="M550.53,192.82c-1.56,0-2.77,0-4,0s-1.84-.53-1.85-1.47.63-1.56,1.81-1.58c2.54-.05,5.08-.07,7.61,0,1.52,0,1.93.92,1,2.24-1.45,2.14-3,4.23-4.48,6.34-.3.43-.58.87-1.06,1.58,1.17,0,2.09,0,3,0a12.62,12.62,0,0,1,2,.12,1.47,1.47,0,0,1-.21,2.93c-1.11.05-2.22,0-3.33,0-1.54,0-3.07,0-4.6,0-.67,0-1.46.19-1.82-.61s.07-1.41.52-2c1.36-1.89,2.7-3.79,4-5.69C549.64,194.15,550,193.63,550.53,192.82Z"/><path class="cls-1" d="M550.53,265.29c-1.56,0-2.77,0-4,0s-1.84-.53-1.85-1.47.63-1.56,1.81-1.58c2.54-.05,5.08-.07,7.61,0,1.52,0,1.93.92,1,2.24-1.45,2.14-3,4.23-4.48,6.34-.3.43-.58.87-1.06,1.58h3a13.86,13.86,0,0,1,2,.12,1.47,1.47,0,0,1-.21,2.93c-1.11.05-2.22,0-3.33,0-1.54,0-3.07,0-4.6,0-.67,0-1.46.18-1.82-.62s.07-1.41.52-2c1.36-1.89,2.7-3.79,4-5.69C549.64,266.61,550,266.09,550.53,265.29Z"/><path class="cls-1" d="M550.53,337.75c-1.56,0-2.77,0-4,0s-1.84-.53-1.85-1.47.63-1.56,1.81-1.58c2.54-.05,5.08-.07,7.61,0,1.52,0,1.93.93,1,2.24-1.45,2.15-3,4.23-4.48,6.35-.3.42-.58.86-1.06,1.57,1.17,0,2.09,0,3,0a13.86,13.86,0,0,1,2,.12,1.47,1.47,0,0,1-.21,2.93c-1.11.05-2.22,0-3.33,0-1.54,0-3.07,0-4.6,0-.67,0-1.46.18-1.82-.62s.07-1.41.52-2c1.36-1.89,2.7-3.79,4-5.69C549.64,339.07,550,338.55,550.53,337.75Z"/><path class="cls-1" d="M549.39,409.61c-1.26,0-2.24,0-3.22,0s-1.48-.43-1.49-1.19.51-1.26,1.46-1.28c2.05,0,4.11-.05,6.16,0,1.23,0,1.56.75.84,1.82-1.17,1.73-2.42,3.42-3.62,5.13-.25.34-.47.7-.86,1.27h2.43a10.14,10.14,0,0,1,1.66.1,1.19,1.19,0,0,1-.17,2.37c-.9,0-1.8,0-2.69,0-1.24,0-2.49,0-3.73,0-.53,0-1.18.15-1.47-.5s.06-1.14.43-1.64c1.1-1.53,2.18-3.06,3.26-4.6C548.67,410.69,549,410.26,549.39,409.61Z"/><path class="cls-1" d="M549.39,479.54c-1.26,0-2.24,0-3.22,0s-1.48-.43-1.49-1.19.51-1.26,1.46-1.28c2.05,0,4.11-.05,6.16,0,1.23,0,1.56.75.84,1.82-1.17,1.73-2.42,3.42-3.62,5.13-.25.34-.47.7-.86,1.27h2.43a10.14,10.14,0,0,1,1.66.1,1.19,1.19,0,0,1-.17,2.37c-.9,0-1.8,0-2.69,0-1.24,0-2.49,0-3.73,0-.53,0-1.18.15-1.47-.5s.06-1.14.43-1.64c1.1-1.52,2.18-3.06,3.26-4.6C548.67,480.61,549,480.19,549.39,479.54Z"/><path class="cls-1" d="M549.39,549.46c-1.26,0-2.24,0-3.22,0s-1.48-.43-1.49-1.19.51-1.26,1.46-1.28c2.05,0,4.11-.05,6.16,0,1.23,0,1.56.75.84,1.82-1.17,1.73-2.42,3.42-3.62,5.13-.25.34-.47.7-.86,1.27,1,0,1.69,0,2.43,0a10.15,10.15,0,0,1,1.66.09,1.19,1.19,0,0,1-.17,2.37c-.9,0-1.8,0-2.69,0-1.24,0-2.49,0-3.73,0-.53,0-1.18.15-1.47-.49s.06-1.14.43-1.65c1.1-1.52,2.18-3.06,3.26-4.6C548.67,550.53,549,550.11,549.39,549.46Z"/><path class="cls-1" d="M548.24,618.77c-1,0-1.7,0-2.45,0s-1.12-.32-1.13-.9.39-1,1.11-1c1.56,0,3.12,0,4.68,0,.93,0,1.18.57.63,1.37-.89,1.32-1.83,2.6-2.75,3.9l-.65,1h1.85a7.55,7.55,0,0,1,1.26.08.9.9,0,0,1-.13,1.79c-.68,0-1.36,0-2,0-.94,0-1.88,0-2.82,0-.41,0-.9.12-1.12-.37s0-.87.32-1.25c.84-1.16,1.66-2.33,2.48-3.5C547.69,619.59,547.9,619.27,548.24,618.77Z"/><path class="cls-1" d="M548.24,686.11c-1,0-1.7,0-2.45,0s-1.12-.32-1.13-.9.39-1,1.11-1c1.56,0,3.12,0,4.68,0,.93,0,1.18.57.63,1.37-.89,1.32-1.83,2.6-2.75,3.9l-.65,1h1.85a7.55,7.55,0,0,1,1.26.08.9.9,0,0,1-.13,1.79c-.68,0-1.36,0-2,0-.94,0-1.88,0-2.82,0-.41,0-.9.12-1.12-.37s0-.87.32-1.25c.84-1.16,1.66-2.33,2.48-3.5C547.69,686.93,547.9,686.61,548.24,686.11Z"/><path class="cls-1" d="M547.5,728.22h-2c-.6,0-.9-.26-.91-.72s.31-.76.89-.77c1.24,0,2.48,0,3.73,0,.74,0,.94.45.5,1.09-.71,1-1.46,2.07-2.19,3.11-.15.21-.28.42-.52.77h1.48a6.71,6.71,0,0,1,1,.06.72.72,0,0,1-.11,1.43c-.54,0-1.08,0-1.63,0h-2.25c-.32,0-.71.09-.89-.3s0-.69.26-1l2-2.79C547.06,728.87,547.23,728.62,547.5,728.22Z"/><path class="cls-1" d="M511.64,750.58h-1.95c-.6,0-.9-.26-.9-.72s.31-.76.88-.77c1.24,0,2.49,0,3.73,0,.74,0,.94.45.51,1.09-.71,1.05-1.46,2.07-2.2,3.11l-.51.77h1.47a6.63,6.63,0,0,1,1,.06.7.7,0,0,1,.62.77.69.69,0,0,1-.72.66c-.54,0-1.09,0-1.63,0-.75,0-1.5,0-2.25,0-.33,0-.72.09-.9-.3s0-.69.26-1c.67-.93,1.32-1.86,2-2.79Z"/><path class="cls-1" d="M528.94,760.87h-2c-.59,0-.89-.26-.9-.72s.31-.77.89-.78c1.24,0,2.48,0,3.72,0,.74,0,.94.46.51,1.1-.71,1-1.46,2.07-2.19,3.11-.15.2-.29.42-.52.77H530a6.77,6.77,0,0,1,1,.06.72.72,0,0,1-.11,1.43c-.54,0-1.09,0-1.63,0H527c-.33,0-.72.09-.89-.3s0-.69.26-1c.66-.92,1.31-1.85,2-2.78C528.51,761.52,528.67,761.26,528.94,760.87Z"/><path class="cls-1" d="M547.5,771.64h-2c-.6,0-.9-.26-.91-.72s.31-.77.89-.78c1.24,0,2.48,0,3.73,0,.74,0,.94.46.5,1.1-.71,1-1.46,2.07-2.19,3.1-.15.21-.28.43-.52.77h1.48a4.8,4.8,0,0,1,1,.06.68.68,0,0,1,.61.76.69.69,0,0,1-.72.67c-.54,0-1.08,0-1.63,0h-2.25c-.32,0-.71.08-.89-.31s0-.68.26-1c.66-.92,1.32-1.85,2-2.78C547.06,772.29,547.23,772,547.5,771.64Z"/><path class="cls-1" d="M511.64,787h-1.95c-.6,0-.9-.26-.9-.72s.31-.76.88-.77c1.24,0,2.49,0,3.73,0,.74,0,.94.45.51,1.1-.71,1-1.46,2.07-2.2,3.1l-.51.77h1.47a6.63,6.63,0,0,1,1,.06.72.72,0,0,1-.1,1.44c-.54,0-1.09,0-1.63,0h-2.25c-.33,0-.72.09-.9-.3s0-.69.26-1c.67-.92,1.32-1.86,2-2.79Z"/><path class="cls-1" d="M528.94,797.27h-2c-.59,0-.89-.26-.9-.72s.31-.76.89-.77c1.24,0,2.48,0,3.72,0,.74,0,.94.45.51,1.09-.71,1-1.46,2.07-2.19,3.11-.15.21-.29.42-.52.77H530a6.77,6.77,0,0,1,1,.06.7.7,0,0,1,.61.77.69.69,0,0,1-.72.66c-.54,0-1.09,0-1.63,0H527c-.33,0-.72.09-.89-.3s0-.69.26-1c.66-.92,1.31-1.85,2-2.78C528.51,797.92,528.67,797.67,528.94,797.27Z"/><path class="cls-1" d="M547.5,808h-2c-.6,0-.9-.26-.91-.72s.31-.76.89-.78c1.24,0,2.48,0,3.73,0,.74,0,.94.46.5,1.1-.71,1.05-1.46,2.07-2.19,3.11-.15.2-.28.42-.52.77h1.48a6.71,6.71,0,0,1,1,.06.68.68,0,0,1,.61.76.69.69,0,0,1-.72.67c-.54,0-1.08,0-1.63,0h-2.25c-.32,0-.71.09-.89-.3s0-.69.26-1c.66-.92,1.32-1.85,2-2.78C547.06,808.69,547.23,808.43,547.5,808Z"/><path class="cls-1" d="M80.79,18.33c1.65-3.09,4.44-4.74,7.63-5.84,10.33-3.55,19.57-1.32,27.66,5.69a15.65,15.65,0,0,1,5.63,13.42c2.68,1.27,5.37,2.15,7.61,3.68,11,7.45,18.85,24.84,7,40.73-3.9,5.2-8.78,9-15.31,10.23a26,26,0,0,1-4.76.35c-29.57,0-59.13-.08-88.69.08A24.37,24.37,0,0,1,8.3,78.23,28.23,28.23,0,0,1,.51,59.76c-.19-7.41,2.61-14,7.38-19.61,3-3.56,6.55-6.42,11.19-7.61a2,2,0,0,0,1.7-2.23C21.46,14,32,2.5,48.19.74A38.43,38.43,0,0,1,63.7,2.15a24.32,24.32,0,0,1,15,12.59c.58,1.13,1.15,2.26,1.74,3.39C80.48,18.21,80.62,18.24,80.79,18.33ZM50.56,38.79c-.86,1.32-1.44,2.29-2.1,3.21q-6.49,9.12-13,18.21a12.14,12.14,0,0,0-1.54,2.41c-1.21,2.92.2,5.25,3.35,5.3,6.72.1,13.44.07,20.16,0A3.36,3.36,0,0,0,61,64.68a3.48,3.48,0,0,0-3.75-3.12c-3.62.14-7.25,0-10.87,0-1,0-2-.09-3.48-.17.88-1.33,1.47-2.31,2.13-3.24L58.13,40a13.42,13.42,0,0,0,1.36-2.15c1.26-2.81,0-5.19-3-5.64a15.07,15.07,0,0,0-2.23-.07h-15a13.91,13.91,0,0,0-2.24.07,3.59,3.59,0,0,0-3.08,3.53c.1,1.65,1.22,2.73,3.28,2.8,3.3.11,6.61,0,9.91.07C48.07,38.63,49.09,38.72,50.56,38.79Zm48.81,8.64c-1.11,1.62-1.8,2.67-2.52,3.7-2.71,3.84-5.4,7.68-8.15,11.48-.91,1.26-1.77,2.54-1.06,4.1S90,67.94,91.31,68c3.1,0,6.19,0,9.29,0,2.24,0,4.48.06,6.72,0a3,3,0,0,0,.43-5.91,25.87,25.87,0,0,0-4.14-.24c-1.85,0-3.71,0-6.07,0,1-1.43,1.53-2.32,2.13-3.17,3-4.27,6.11-8.48,9-12.81,1.8-2.65,1-4.44-2.09-4.52-5.12-.13-10.24-.1-15.36,0-2.38.05-3.68,1.35-3.66,3.19s1.27,2.92,3.73,3S96.23,47.43,99.37,47.43ZM73.22,61.76c.88-1.33,1.42-2.22,2-3.07,2.71-3.83,5.45-7.64,8.17-11.46a16,16,0,0,0,1.41-2.13c1-2.07.21-3.5-2.12-3.85a7.64,7.64,0,0,0-1,0c-4.8,0-9.6,0-14.41,0a6,6,0,0,0-2.73.7,2.65,2.65,0,0,0-1.31,3,2.75,2.75,0,0,0,2.29,2.37,18,18,0,0,0,2.55.09h6.68c-.53,1-.78,1.54-1.14,2-3,4.27-6.05,8.52-9.07,12.79a10.3,10.3,0,0,0-1.33,2.16c-.75,2,.11,3.32,2.27,3.5,1.17.1,2.35,0,3.52,0,4.49,0,9-.07,13.45,0a3.08,3.08,0,0,0,3.42-3c.11-1.6-1.09-2.83-3-3.11a22.72,22.72,0,0,0-3.2-.1C77.71,61.75,75.7,61.76,73.22,61.76Z"/><path class="cls-2" d="M50.56,38.79c-1.47-.07-2.49-.16-3.51-.17-3.3,0-6.61,0-9.91-.07-2.06-.07-3.18-1.15-3.28-2.8a3.59,3.59,0,0,1,3.08-3.53,13.91,13.91,0,0,1,2.24-.07h15a15.07,15.07,0,0,1,2.23.07c3,.45,4.3,2.83,3,5.64A13.42,13.42,0,0,1,58.13,40L45.07,58.18c-.66.93-1.25,1.91-2.13,3.24,1.45.08,2.46.16,3.48.17,3.62,0,7.25.11,10.87,0A3.48,3.48,0,0,1,61,64.68a3.36,3.36,0,0,1-3.62,3.25C50.7,68,44,68,37.26,67.92c-3.15,0-4.56-2.38-3.35-5.3a12.14,12.14,0,0,1,1.54-2.41q6.49-9.1,13-18.21C49.12,41.08,49.7,40.11,50.56,38.79Z"/><path class="cls-2" d="M99.37,47.43c-3.14,0-5.59,0-8,0s-3.7-1.07-3.73-3,1.28-3.14,3.66-3.19c5.12-.1,10.24-.13,15.36,0,3.06.08,3.89,1.87,2.09,4.52-2.93,4.33-6,8.54-9,12.81-.6.85-1.17,1.74-2.13,3.17,2.36,0,4.22,0,6.07,0a25.87,25.87,0,0,1,4.14.24,3,3,0,0,1-.43,5.91c-2.24.1-4.48,0-6.72,0-3.1,0-6.19,0-9.29,0-1.34,0-3,.37-3.67-1.24s.15-2.84,1.06-4.1c2.75-3.8,5.44-7.64,8.15-11.48C97.57,50.1,98.26,49.05,99.37,47.43Z"/><path class="cls-2" d="M73.22,61.76c2.48,0,4.49,0,6.49,0a22.72,22.72,0,0,1,3.2.1c1.94.28,3.14,1.51,3,3.11a3.08,3.08,0,0,1-3.42,3c-4.48-.1-9,0-13.45,0-1.17,0-2.35.06-3.52,0-2.16-.18-3-1.5-2.27-3.5a10.3,10.3,0,0,1,1.33-2.16c3-4.27,6.06-8.52,9.07-12.79.36-.5.61-1.08,1.14-2H68.14a18,18,0,0,1-2.55-.09A2.75,2.75,0,0,1,63.3,45a2.65,2.65,0,0,1,1.31-3,6,6,0,0,1,2.73-.7c4.81-.07,9.61,0,14.41,0a7.64,7.64,0,0,1,1,0C85,41.6,85.86,43,84.83,45.1a16,16,0,0,1-1.41,2.13C80.7,51.05,78,54.86,75.25,58.69,74.64,59.54,74.1,60.43,73.22,61.76Z"/><text class="cls-3" transform="translate(148.09 37)">WEB PIL<tspan class="cls-4" x="148.14" y="0">L</tspan><tspan class="cls-5" x="167.09" y="0">O</tspan><tspan class="cls-6" x="194.38" y="0">W</tspan></text><text class="cls-7" transform="translate(190.78 59.54)"><tspan class="cls-8">Y</tspan><tspan x="11.07" y="0">ou d</tspan><tspan class="cls-9" x="49.82" y="0">r</tspan><tspan x="57.02" y="0">eam, </tspan><tspan class="cls-10" x="104.91" y="0">w</tspan><tspan x="120.05" y="0">e </tspan><tspan class="cls-11" x="135.52" y="0">c</tspan><tspan x="145.94" y="0">ode.</tspan></text></g></g></svg>