<svg xmlns="http://www.w3.org/2000/svg" viewBox="0 0 378.72 87.17"><defs><style>.cls-1,.cls-3,.cls-7{fill:#231f20;}.cls-1{stroke:#fff;stroke-miterlimit:10;}.cls-2{fill:#fff;}.cls-3{font-size:41.47px;font-family:TitilliumWeb-Light, Titillium Web;}.cls-4{letter-spacing:-0.02em;}.cls-5{letter-spacing:0em;}.cls-6{letter-spacing:0em;}.cls-7{font-size:19.46px;font-family:LibreFranklin-Regular, Libre Franklin;}.cls-8{letter-spacing:-0.11em;}.cls-9{letter-spacing:-0.01em;}.cls-10{letter-spacing:-0.02em;}.cls-11{letter-spacing:-0.01em;}</style></defs><title>web-pillow logo</title><g id="Layer_2" data-name="Layer 2"><g id="Layer_1-2" data-name="Layer 1"><path class="cls-1" d="M80.79,18.33c1.65-3.09,4.44-4.74,7.63-5.84,10.33-3.55,19.57-1.32,27.66,5.69a15.65,15.65,0,0,1,5.63,13.42c2.68,1.27,5.37,2.15,7.61,3.68,11,7.45,18.85,24.84,7,40.73-3.9,5.2-8.78,9-15.31,10.23a26,26,0,0,1-4.76.35c-29.57,0-59.13-.08-88.69.08A24.37,24.37,0,0,1,8.3,78.23,28.23,28.23,0,0,1,.51,59.76c-.19-7.41,2.61-14,7.38-19.61,3-3.56,6.55-6.42,11.19-7.61a2,2,0,0,0,1.7-2.23C21.46,14,32,2.5,48.19.74A38.43,38.43,0,0,1,63.7,2.15a24.32,24.32,0,0,1,15,12.59c.58,1.13,1.15,2.26,1.74,3.39C80.48,18.21,80.62,18.24,80.79,18.33ZM50.56,38.79c-.86,1.32-1.44,2.29-2.1,3.21q-6.49,9.12-13,18.21a12.14,12.14,0,0,0-1.54,2.41c-1.21,2.92.2,5.25,3.35,5.3,6.72.1,13.44.07,20.16,0A3.36,3.36,0,0,0,61,64.68a3.48,3.48,0,0,0-3.75-3.12c-3.62.14-7.25,0-10.87,0-1,0-2-.09-3.48-.17.88-1.33,1.47-2.31,2.13-3.24L58.13,40a13.42,13.42,0,0,0,1.36-2.15c1.26-2.81,0-5.19-3-5.64a15.07,15.07,0,0,0-2.23-.07h-15a13.91,13.91,0,0,0-2.24.07,3.59,3.59,0,0,0-3.08,3.53c.1,1.65,1.22,2.73,3.28,2.8,3.3.11,6.61,0,9.91.07C48.07,38.63,49.09,38.72,50.56,38.79Zm48.81,8.64c-1.11,1.62-1.8,2.67-2.52,3.7-2.71,3.84-5.4,7.68-8.15,11.48-.91,1.26-1.77,2.54-1.06,4.1S90,67.94,91.31,68c3.1,0,6.19,0,9.29,0,2.24,0,4.48.06,6.72,0a3,3,0,0,0,.43-5.91,25.87,25.87,0,0,0-4.14-.24c-1.85,0-3.71,0-6.07,0,1-1.43,1.53-2.32,2.13-3.17,3-4.27,6.11-8.48,9-12.81,1.8-2.65,1-4.44-2.09-4.52-5.12-.13-10.24-.1-15.36,0-2.38.05-3.68,1.35-3.66,3.19s1.27,2.92,3.73,3S96.23,47.43,99.37,47.43ZM73.22,61.76c.88-1.33,1.42-2.22,2-3.07,2.71-3.83,5.45-7.64,8.17-11.46a16,16,0,0,0,1.41-2.13c1-2.07.21-3.5-2.12-3.85a7.64,7.64,0,0,0-1,0c-4.8,0-9.6,0-14.41,0a6,6,0,0,0-2.73.7,2.65,2.65,0,0,0-1.31,3,2.75,2.75,0,0,0,2.29,2.37,18,18,0,0,0,2.55.09h6.68c-.53,1-.78,1.54-1.14,2-3,4.27-6.05,8.52-9.07,12.79a10.3,10.3,0,0,0-1.33,2.16c-.75,2,.11,3.32,2.27,3.5,1.17.1,2.35,0,3.52,0,4.49,0,9-.07,13.45,0a3.08,3.08,0,0,0,3.42-3c.11-1.6-1.09-2.83-3-3.11a22.72,22.72,0,0,0-3.2-.1C77.71,61.75,75.7,61.76,73.22,61.76Z"/><path class="cls-2" d="M99.37,47.43c-3.14,0-5.59,0-8,0s-3.7-1.07-3.73-3,1.28-3.14,3.66-3.19c5.12-.1,10.24-.13,15.36,0,3.06.08,3.89,1.87,2.09,4.52-2.93,4.33-6,8.54-9,12.81-.6.85-1.17,1.74-2.13,3.17,2.36,0,4.22,0,6.07,0a25.87,25.87,0,0,1,4.14.24,3,3,0,0,1-.43,5.91c-2.24.1-4.48,0-6.72,0-3.1,0-6.19,0-9.29,0-1.34,0-3,.37-3.67-1.24s.15-2.84,1.06-4.1c2.75-3.8,5.44-7.64,8.15-11.48C97.57,50.1,98.26,49.05,99.37,47.43Z"/><text class="cls-3" transform="translate(148.09 37)">WEB PIL<tspan class="cls-4" x="148.14" y="0">L</tspan><tspan class="cls-5" x="167.09" y="0">O</tspan><tspan class="cls-6" x="194.38" y="0">W</tspan></text><text class="cls-7" transform="translate(190.78 59.54)"><tspan class="cls-8">Y</tspan><tspan x="11.07" y="0">ou d</tspan><tspan class="cls-9" x="49.82" y="0">r</tspan><tspan x="57.02" y="0">eam, </tspan><tspan class="cls-10" x="104.91" y="0">w</tspan><tspan x="120.05" y="0">e </tspan><tspan class="cls-11" x="135.52" y="0">c</tspan><tspan x="145.94" y="0">ode.</tspan></text></g></g></svg>