<svg xmlns="http://www.w3.org/2000/svg" viewBox="0 0 72.27 72.23"><title>youtube-icon</title><g id="Layer_2" data-name="Layer 2"><g id="Layer_1-2" data-name="Layer 1"><path d="M36.1,0A36.12,36.12,0,1,1,0,36.14,36.14,36.14,0,0,1,36.1,0Zm0,19.25c-5.61,0-11.22.1-16.81.66a7.06,7.06,0,0,0-5.09,2.37,7.43,7.43,0,0,0-1.48,3.84,74.83,74.83,0,0,0-.25,18.07A21.9,21.9,0,0,0,13,47.51,5.84,5.84,0,0,0,17.68,52a15.58,15.58,0,0,0,1.9.29A180,180,0,0,0,38.16,53c5,0,10-.15,14.9-.67,3.92-.4,5.83-2.2,6.45-6.11a74.1,74.1,0,0,0,.42-16.64,22.83,22.83,0,0,0-.75-5.06,5.82,5.82,0,0,0-4.53-4.28,15.35,15.35,0,0,0-1.9-.31C47.21,19.33,41.65,19.27,36.09,19.25Z"/><path d="M43.66,36.18l-12,6.93c-.37-1.23-.47-11.51-.17-13.75C32.57,29.55,40.65,34.06,43.66,36.18Z"/></g></g></svg>