<svg xmlns="http://www.w3.org/2000/svg" viewBox="0 0 72.31 72.38"><title>pinterest-icon</title><g id="Layer_2" data-name="Layer 2"><g id="Layer_1-2" data-name="Layer 1"><path d="M21.22,49.55a35.46,35.46,0,0,0,1.34-4.89c.12-.46-.19-.81-.43-1.16C16.28,35.14,21,21.56,33.44,20a18.2,18.2,0,0,1,7.31.46c6,1.66,9.87,6.46,10.32,13a21.84,21.84,0,0,1-1.81,10.48A12.59,12.59,0,0,1,45.2,49.2a8.18,8.18,0,0,1-6.78,1.69,5.06,5.06,0,0,1-4-6.38c.44-1.87,1-3.7,1.58-5.54a41.28,41.28,0,0,0,1.3-5.12,7.15,7.15,0,0,0-.11-3,4.37,4.37,0,0,0-5.68-3.24,6.33,6.33,0,0,0-4,3.46,11.76,11.76,0,0,0-.6,9.05A5.58,5.58,0,0,1,27,43.21c-1.23,5.09-2.4,10.19-3.62,15.28a28.57,28.57,0,0,0-.51,9.4,3.93,3.93,0,0,1,0,1.74C8.59,64.73-4.39,46.93,1.42,26.22A36.13,36.13,0,1,1,69.77,49.4c-7.88,19.91-29.1,26.51-44.28,21.25a42,42,0,0,0,4.09-8.46c.9-3,1.64-6.08,2.47-9.17.17.08.36.09.44.19,2.5,3,5.78,3.89,9.49,3.53a17.5,17.5,0,0,0,12.86-8,23.32,23.32,0,0,0,3.68-19.22A19.09,19.09,0,0,0,47.31,15.86,25.38,25.38,0,0,0,23,17.14a20.55,20.55,0,0,0-8.38,25.58,14.47,14.47,0,0,0,3.4,5A6.73,6.73,0,0,0,21.22,49.55Z"/></g></g></svg>