<svg xmlns="http://www.w3.org/2000/svg" viewBox="0 0 72.24 72.26"><title>reddit-icon</title><g id="Layer_2" data-name="Layer 2"><g id="Layer_1-2" data-name="Layer 1"><path d="M36.05,0A36.13,36.13,0,1,1,0,36.53,36.11,36.11,0,0,1,36.05,0Zm-.78,27.71c-8.6,1.44-8.6,1.44-14.28,4.45-3.26-1.95-6.14-1.62-7.95.91s-1.16,5.24,2,8c-.39,5.37,2.25,9.13,6.5,12a18.33,18.33,0,0,0,2.94,1.63A28.51,28.51,0,0,0,43,56.39a21.15,21.15,0,0,0,10.71-5.78A12.28,12.28,0,0,0,56.91,45,13.67,13.67,0,0,0,57.15,41c3.11-2.24,3.91-5.08,2.22-7.74a5,5,0,0,0-3-2.24,5.47,5.47,0,0,0-5.1,1.23c-4.21-2.94-8.94-4.11-14-4.48.81-3.83,1.49-7.47,2.42-11.16l7.59,1.61c.19.54.3,1,.47,1.35a3.74,3.74,0,0,0,7.1-.71A3.72,3.72,0,0,0,53,14.79a3.49,3.49,0,0,0-4.41.6,2.11,2.11,0,0,1-2.37.7c-2.08-.5-4.17-.92-6.26-1.37-1.64-.34-1.87-.2-2.21,1.38s-.65,3-1,4.54C36.29,23,35.78,25.33,35.27,27.71Z"/><path d="M27.84,43.6a3.72,3.72,0,0,1-3.72-3.77,3.78,3.78,0,0,1,3.67-3.69,3.85,3.85,0,0,1,3.82,3.72A3.77,3.77,0,0,1,27.84,43.6Z"/><path d="M48.11,40a3.68,3.68,0,0,1-3.83,3.64,3.72,3.72,0,0,1-3.62-3.71,3.81,3.81,0,0,1,3.77-3.75A3.75,3.75,0,0,1,48.11,40Z"/><path d="M35.94,52.57a15.85,15.85,0,0,1-6.82-1.43,5.61,5.61,0,0,1-1.93-1.4.84.84,0,0,1,0-1.17.9.9,0,0,1,1.15-.22,1.2,1.2,0,0,1,.26.18c4,2.73,8.33,2.48,12.74,1.3a5.8,5.8,0,0,0,2.22-1.23c.5-.43,1.07-.6,1.53,0s.09,1.1-.39,1.51a11.59,11.59,0,0,1-6.2,2.3C37.65,52.53,36.8,52.53,35.94,52.57Z"/></g></g></svg>