<svg xmlns="http://www.w3.org/2000/svg" viewBox="0 0 24.14 23.85"><defs><style>.cls-1{fill:none;stroke:#000;stroke-miterlimit:10;}</style></defs><title>search-icon</title><g id="Layer_2" data-name="Layer 2"><g id="Layer_1-2" data-name="Layer 1"><path d="M15.06,8.16c0,.38-.26.42-.54.41S14,8.5,14,8.17s.25-.32.48-.32S15,7.89,15.06,8.16Z"/><path d="M11.48,2.58c1.68.73,3.2,2.74,3,3.92,0,.21,0,.47-.48.36s-.37-.31-.37-.51c.06-1.28-.76-2.37-2.44-3.29-.27-.15-.65-.34-.42-.57S11.21,2.47,11.48,2.58Z"/><path d="M2.5,14.72A9.12,9.12,0,0,1,.06,7.61,8.61,8.61,0,0,1,7.16.1a8.61,8.61,0,0,1,9.13,5,8.41,8.41,0,0,1-2.53,10.08,8.52,8.52,0,0,1-10.22.23c-.36-.25-.72-.5-1.07-.76ZM16.13,8.54a7.63,7.63,0,1,0-7.66,7.64A7.66,7.66,0,0,0,16.13,8.54Z"/><line class="cls-1" x1="14.28" y1="14" x2="23.78" y2="23.5"/></g></g></svg>