<svg xmlns="http://www.w3.org/2000/svg" viewBox="0 0 72.23 72.23"><title>tik tok icon</title><g id="Layer_2" data-name="Layer 2"><g id="Layer_1-2" data-name="Layer 1"><path d="M72.22,36.19A36.11,36.11,0,1,1,36.22,0,36,36,0,0,1,72.22,36.19ZM32.49,30a15.36,15.36,0,0,0-4.3.08A14.71,14.71,0,1,0,45.37,44.18q0-6.81,0-13.63c0-.54-.22-1.16.32-1.68,3.32,1.95,6.77,3.29,10.69,3V24.22C50.16,22.84,46,19.52,45.12,12.84c-1.32,0-2.59,0-3.87,0a16.21,16.21,0,0,0-4,.19V38.1c0,2.19.05,4.38,0,6.57a6.39,6.39,0,0,1-4.05,6,6.15,6.15,0,0,1-7-1.17,6.59,6.59,0,0,1-1.7-7.73,6.75,6.75,0,0,1,7-3.8c.35,0,.71.28,1.16-.07C32.69,35.4,32.58,32.8,32.49,30Z"/></g></g></svg>