<svg xmlns="http://www.w3.org/2000/svg" viewBox="0 0 295.42 47.16"><defs><style>.cls-1{font-size:27px;stroke:#000;stroke-miterlimit:10;stroke-width:0.25px;font-family:TiroGurmukhi-Regular, Tiro Gurmukhi;}</style></defs><title>Asset 8</title><g id="Layer_2" data-name="Layer 2"><g id="Layer_1-2" data-name="Layer 1"><text class="cls-1" transform="translate(131.68 35.43)">&amp;</text><path d="M178.2,9.65a12.74,12.74,0,0,1,15,2.6,12.94,12.94,0,0,1,2,15.05,12.47,12.47,0,0,1-7.14,6A13.22,13.22,0,0,1,178.7,33v2.6c0,2.25,0,4.51,0,6.76s-1.07,3.38-3.42,3.39h-8c-2.19,0-3.26-1.09-3.26-3.3q0-15.15,0-30.32a5.47,5.47,0,0,1,.79-3q2.43-3.89,4.82-7.78a5.21,5.21,0,0,1,.3-.46,1.82,1.82,0,0,1,3.22.13c1.49,2.49,2.92,5,4.38,7.53C177.75,8.92,178,9.25,178.2,9.65Zm5.63,23.24a12.51,12.51,0,0,0,2.28-.17,13,13,0,0,0,2.19-.62,11.87,11.87,0,0,0,7.37-11.42,11.75,11.75,0,0,0-8.92-10.95,10.36,10.36,0,0,0-6.92.44c-.42.19-1,.37-1,.87a15,15,0,0,0,.15,4.53c.07.29.37.53.58.77.55.63,1.13,1.24,1.65,1.88,1.54,1.89,1.61,4.39-.19,6a6.88,6.88,0,0,0-2.31,6.3,1.79,1.79,0,0,0,1.22,1.71A9.49,9.49,0,0,0,183.83,32.89ZM173.44,11.07a20.53,20.53,0,0,0-2.9-.1c-.9,0-1.15.31-1.16,1.21-.11,6.45,0,12.91,0,19.37,0,.57.07,1.14.11,1.7h3.93Zm-1.95,33.46c1.45,0,2.9,0,4.35,0,1.22,0,1.5-.3,1.51-1.47s0-2.39,0-3.59-.25-1.39-1.3-1.46c-3.08-.19-6.16-.06-9.25-.08a1.17,1.17,0,0,0-1.33,1.24c0,1.23-.08,2.47-.07,3.7s.41,1.63,1.63,1.66C168.52,44.55,170,44.53,171.49,44.53ZM168.35,33.3V11.05a7.4,7.4,0,0,0-2.48-.05V33.3Zm8.63,0c-.25-7.46.41-14.84-.25-22.28a9.38,9.38,0,0,0-2.3,0V33.33Zm-.6-23.41L174.08,6c-1.21-2.06-1.21-2.06-3.55-1.89-.25,0-.51,0-.67.25L166.4,9.92Zm1,27.19V35.9c0-1.3-.31-1.58-1.62-1.62l-2.5-.05c-2.11,0-4.21-.06-6.31,0-1.14,0-1.5.39-1.52,1.52a2.73,2.73,0,0,0,.09,1.4C169.46,36.91,173.33,37,177.36,37.11Zm1.47-12.29c3.46-2.7,2.66-5.55,0-7.19Z"/><path d="M40.12,10.82a15,15,0,1,1-15,14.92A14.89,14.89,0,0,1,40.12,10.82Zm0,27.35A12.44,12.44,0,1,0,27.71,25.76,12.34,12.34,0,0,0,40.1,38.17Z"/><path d="M222.56,17.83c0,2.75,0,5.4,0,8,0,2.37-.15,4.73.11,7.09.16,1.44.44,1.72,1.85,2,.56.1,1,.23.92.92s-.57.66-1.06.66c-1.85,0-3.71,0-5.56,0-.48,0-1.06.07-1.13-.7s.38-.81.93-.92c1.38-.28,1.68-.6,1.88-2a9.55,9.55,0,0,0,.06-1.2l0-15.37c0-1.21-.42-1.69-1.83-2-.31-.08-.67,0-.92-.28a.84.84,0,0,1-.16-.91c.1-.34.38-.41.69-.41H223c.62,0,1,.43,1.31.86L237,29.42c.26.32.54.63.86,1a1.61,1.61,0,0,0,.18-1.05c0-4,0-7.92,0-11.89a11,11,0,0,0-.12-1.51,1.71,1.71,0,0,0-1.71-1.65,1,1,0,0,1-.79-.31.86.86,0,0,1-.13-.82.61.61,0,0,1,.67-.43h6.33a.66.66,0,0,1,.75.61.75.75,0,0,1-.62.89,4.69,4.69,0,0,1-.54.06A1.77,1.77,0,0,0,240.16,16a9.12,9.12,0,0,0-.15,1.73V35.3c0,.29,0,.58,0,.87s-.07.73-.51.85a.87.87,0,0,1-1-.27c-.61-.72-1.22-1.44-1.82-2.17l-13.26-16A1.5,1.5,0,0,0,222.56,17.83Z"/><path d="M7.68,22.41c1.64,0,3.13.08,4.61,0,1.22-.09,2.12-.29,2.27-2,.06-.61.36-.93,1-.88s.84.45.84,1q0,3.32,0,6.65c0,.55-.18.92-.78,1a.86.86,0,0,1-1-.85c-.33-2-.92-2.48-3-2.51-1.26,0-2.53,0-3.74,0-.3.29-.22.6-.22.88,0,2.47,0,4.94,0,7.41,0,1.59.38,2,2,2.15.61.06,1.23.08,1.85.12s1.36.11,1.3,1-.81.86-1.46.86l-7.41,0-2.83,0c-.63,0-1-.19-1.08-.91s.4-.94,1-1l.55-.06c1.9-.16,2-.16,2.06-2,.12-6.54.19-13.08,0-19.61,0-1.45-.31-1.6-1.8-1.72A9.63,9.63,0,0,1,.7,11.91c-.51-.11-.67-.48-.67-1a.78.78,0,0,1,.67-.85A5.09,5.09,0,0,1,1.57,10H16.72c1.51,0,1.64.16,1.68,1.71,0,1.34.1,2.68.14,4,0,.63-.09,1.21-.86,1.27s-.94-.52-1-1.13c-.46-2.63-1.53-3.54-4.19-3.54-1.13,0-2.25,0-3.38,0-.77,0-1.37.38-1.38,1.23C7.67,16.52,7.68,19.42,7.68,22.41Z"/><path d="M110.37,17.5c.38-2.3.77-4.62,1.15-6.94.31-1.9.6-3.8.91-5.7a2.68,2.68,0,0,1,.26-.83,1,1,0,0,1,1.24-.65,1,1,0,0,1,.89,1.07,5.28,5.28,0,0,1-.14,1.18q-1.28,5.51-2.58,11a2.88,2.88,0,0,0-.14,1.12,6.46,6.46,0,0,0,1.57.6c1.45.58,1.71.88,1.65,2.42a1.61,1.61,0,0,0,1,1.75,6,6,0,0,1,3.16,7.32,6.54,6.54,0,0,1-6.86,4.26,2.89,2.89,0,0,0-2.42.58,4.88,4.88,0,0,1-1.1.7,1.73,1.73,0,0,0-1.16,1.76c0,.69-.41,1-1,1h-9.7c-.78,0-1.18-.42-1.13-1.14s-.37-1.18-1.06-1.52a9.44,9.44,0,0,1-4.53-5,23.52,23.52,0,0,1-1.64-8.61C88.64,19.23,88,19,91.64,18a38.26,38.26,0,0,1,8.54-.92,53.21,53.21,0,0,1,9.77.49A2.4,2.4,0,0,0,110.37,17.5Zm-.9,4.55c-6.75.58-13.42.77-20.09-1.15.15,3.76.39,7.37,2.28,10.62a8.68,8.68,0,0,0,5.75,4.17,19.11,19.11,0,0,0,9,0,8.63,8.63,0,0,0,5.71-4c1.93-3.31,2.3-7,2.32-10.7-.48-.11-.79.14-1.13.22s-.69.23-1,.32c-1.51.38-1.52.38-1.64,2A4.22,4.22,0,0,1,112.92,28a8.54,8.54,0,0,1-3,5.72c-1.55,1.34-3,1-3.83-.9a9.06,9.06,0,0,1-.61-6.17,4,4,0,0,1,3.14-3.12C109.36,23.31,109.74,23,109.47,22.05Zm.78-3.68a3.94,3.94,0,0,0-1.3-.3,68,68,0,0,0-10.87-.27A26.76,26.76,0,0,0,90.59,19c-.42.14-1,.18-1.09.75,1.94,2,15,2.87,20.28,1.43Zm1.67,15a5.87,5.87,0,0,0,5.74-2,5,5,0,0,0,.81-5.59,4.78,4.78,0,0,0-3.39-3c0,.79-.27,1.39.48,1.87a3.88,3.88,0,0,1-1.78,7.1A2,2,0,0,0,111.92,33.39Zm.32-7.1c-.32.23-.27.47-.32.68a8.3,8.3,0,0,1-2.16,4c-1.26,1.22-1.93,2-3.67.5a2.22,2.22,0,0,0,.33,1.16c.78,1.59,1.73,1.83,3.09.7a8.84,8.84,0,0,0,2.88-5A3.37,3.37,0,0,0,112.24,26.29Zm1,4.78a3.19,3.19,0,0,0,3.29-2.34c.31-1.32-.33-3.07-1.64-3.43A26.18,26.18,0,0,1,113.23,31.07ZM96.86,37.36H107.1a1.88,1.88,0,0,0,0-1.1,22.42,22.42,0,0,1-10.21.05A1.14,1.14,0,0,0,96.86,37.36ZM111.08,21c1.3-.15,2.44-.25,3.31-1.29a3.44,3.44,0,0,0-2.78-.93Zm.61-8.69c1-2.64,1.24-5.52,2.36-8.26A.85.85,0,0,0,113,4.8C112.53,7.29,112.12,9.79,111.69,12.28Z"/><path d="M204.89,23.23c1.8-.06,3.32.07,4.84-.12,1-.13,1.56-.55,1.65-1.55.06-.57.22-1,.92-.94s.65.55.66,1c0,1.78,0,3.56.07,5.34,0,.51,0,1.05-.72,1.1s-.82-.43-.9-1c-.24-1.5-.73-1.93-2.23-1.95s-2.75,0-4,0a1.44,1.44,0,0,0-.26,1.06c0,2.21,0,4.43,0,6.65,0,1.38.3,1.67,1.66,1.7,1.09,0,2.18,0,3.27,0a3.48,3.48,0,0,0,3.57-2.48c.2-.55.4-1.1.57-1.65s.51-.56.95-.51a.65.65,0,0,1,.6.77c-.1,1.63-.22,3.26-.37,4.88-.06.76-.64.88-1.27.88H199.36c-.51,0-1.07,0-1.13-.68s.51-.84,1.08-.88c.33,0,.65-.09,1-.12a1.06,1.06,0,0,0,1.08-1.13c0-.36,0-.72,0-1.09V16.71c0-.36,0-.73,0-1.09a1.18,1.18,0,0,0-1.21-1.27c-.39,0-.8,0-1.19-.06a.72.72,0,0,1-.74-.78.67.67,0,0,1,.74-.75h14c1.25,0,1.38.12,1.42,1.35s0,2.4.07,3.59c0,.5,0,1-.7,1s-.78-.38-.89-.87a7.88,7.88,0,0,0-.36-1.37,2.64,2.64,0,0,0-2.18-1.75,21.56,21.56,0,0,0-4.25,0,1,1,0,0,0-1,.91C204.77,18.13,204.92,20.62,204.89,23.23Z"/><path d="M258.83,12.33a15.29,15.29,0,0,1,5.7,1.13,1.88,1.88,0,0,1,1.22,1.76c.05,1.08.2,2.17.33,3.25.06.53.11,1.08-.53,1.26s-.92-.28-1.09-.79c-1-3.08-3.38-4.34-6.38-4.61-3.3-.31-6.27.44-8.22,3.38A10.83,10.83,0,0,0,248.5,26a11.76,11.76,0,0,0,4.85,7.85,7.62,7.62,0,0,0,8.87.11,7.48,7.48,0,0,0,2.28-3.13c.16-.37.33-.73.52-1.08a.78.78,0,0,1,1.42.38,32.77,32.77,0,0,1-.6,4.63,1.24,1.24,0,0,1-.85.81c-5.44,2-10.83,2.37-15.78-1.23-4-2.91-5.34-7.1-4.61-11.85.71-4.59,3.74-7.4,7.9-9.09A15.69,15.69,0,0,1,258.83,12.33Z"/><path d="M285.68,36.53h-7.95c-.41,0-.82,0-1.05-.41s.05-1,.72-1.12c2.32-.42,2.32-.42,2.32-2.85V16.24c0-1.64-.22-1.86-1.89-1.92-.39,0-.81,0-1.08-.35a.87.87,0,0,1-.07-.84c.14-.37.49-.38.82-.38h8.07c.5,0,.86.16.87.73s-.32.75-.82.82c-2.41.37-2.41.38-2.41,2.82V32.05c0,2.48.11,2.58,2.57,2.59l3.92,0a3.73,3.73,0,0,0,3.69-2.69c.2-.54.38-1.09.58-1.64a.71.71,0,0,1,.86-.48.67.67,0,0,1,.59.78c-.11,1.67-.21,3.34-.35,5-.06.8-.63,1-1.32,1Z"/><path d="M71.7,16c.4-.9-.34-2,.65-2.75.69.84.1,1.81.47,2.7,1,.11,2-.08,3,.08,4.33.67,7.55,3.8,8.63,8.41,1.21,5.24-1.36,10.79-6,12.89a9.37,9.37,0,0,1-5.32.75,5.1,5.1,0,0,0-1.51,0c-6.25,1-10.54-3.82-11.52-8.31a11.58,11.58,0,0,1,4.62-12.18C66.6,16.2,68.24,15.83,71.7,16Zm.88,12.28c0,2.66,0,5.31,0,8,0,.74.24,1,1,1.1a8.85,8.85,0,0,0,4.86-.86,10.59,10.59,0,0,0,5.37-10.82A10,10,0,0,0,78,17.45c-2.22-1.07-5.74.33-5.48,3.49C72.75,23.36,72.58,25.81,72.58,28.24Zm-.65.1q0-3.87,0-7.74a3.16,3.16,0,0,0-2.37-3.26,4.3,4.3,0,0,0-3.66.42c-6.2,3.47-7.14,12.7-1.74,17.33a8.64,8.64,0,0,0,6.73,2.22c.86-.09,1.07-.43,1.06-1.23C71.9,33.5,71.93,30.92,71.93,28.34Z"/><path d="M274.62,7.34a.57.57,0,0,1-.12.59,3.55,3.55,0,0,0-.37,3.62,2.91,2.91,0,0,1-.29,3.17,2,2,0,0,0,0,2.08,14.25,14.25,0,0,1,.79,6.44c-.2,1.86-.45,3.73-.61,5.6-.36,4.09-.68,8.18-1,12.27-.07.76-.06,1.61-1.07,1.76-.64.1-1.06-.62-1.12-1.82-.31-5.44-.43-10.9-1-16.31a21.86,21.86,0,0,1,.9-8.42,3.7,3.7,0,0,0-.23-2.13,5.48,5.48,0,0,1,0-4A4.42,4.42,0,0,1,274.62,7.34ZM272.05,42c.68-5.72,1.12-11.46,1.52-17.28-.64,0-1.08,0-1.51,0s-.94-.14-1.36.13C270.38,26.51,271.38,41.39,272.05,42ZM273.79,21a9.4,9.4,0,0,0-.66-4.13c-.4-.87-1.5-1-1.78-.26a11.87,11.87,0,0,0-.84,4.6c.89,0,1.64,0,2.4,0A1.28,1.28,0,0,0,273.79,21Zm-1.1-11.82a3.92,3.92,0,0,0-1.32,4.52c.11.37.14.81.68.87a1,1,0,0,0,1-.63,1.6,1.6,0,0,0,.22-1.46A10.24,10.24,0,0,1,272.69,9.15Zm1.2,13.66a3.71,3.71,0,0,0-3.52-.14A3.76,3.76,0,0,0,273.89,22.81Z"/><path d="M184,31.78A2.65,2.65,0,0,1,181.32,29a2.72,2.72,0,1,1,5.43.25A2.6,2.6,0,0,1,184,31.78Zm1.66-2.68a1.65,1.65,0,0,0-1.57-1.63,1.6,1.6,0,1,0,0,3.2A1.62,1.62,0,0,0,185.64,29.1Z"/><path d="M186.77,13.24A2.61,2.61,0,0,1,184.13,16a2.65,2.65,0,0,1-2.73-2.76,2.71,2.71,0,0,1,2.72-2.68A2.67,2.67,0,0,1,186.77,13.24Zm-1.1,0a1.54,1.54,0,0,0-1.58-1.58,1.51,1.51,0,0,0-1.53,1.51,1.54,1.54,0,0,0,1.5,1.65A1.6,1.6,0,0,0,185.67,13.25Z"/><path d="M193.1,17.65a2.67,2.67,0,0,1-2.75,2.73,2.77,2.77,0,0,1-2.62-2.68,2.62,2.62,0,0,1,2.8-2.76A2.48,2.48,0,0,1,193.1,17.65Zm-2.68-1.59a1.45,1.45,0,0,0-1.53,1.58,1.53,1.53,0,0,0,1.57,1.57A1.56,1.56,0,0,0,192,17.6,1.5,1.5,0,0,0,190.42,16.06Z"/><path d="M193.1,24.72a2.6,2.6,0,0,1-2.64,2.72,2.66,2.66,0,0,1-2.74-2.75,2.79,2.79,0,0,1,2.73-2.7A2.67,2.67,0,0,1,193.1,24.72Zm-1.1,0a1.57,1.57,0,0,0-1.6-1.55,1.59,1.59,0,0,0-1.56,1.61,1.56,1.56,0,0,0,1.6,1.54A1.59,1.59,0,0,0,192,24.71Z"/><path d="M40.15,14.75a11,11,0,1,1-11.1,11A11,11,0,0,1,40.15,14.75Zm-.1,21.45a10.44,10.44,0,0,0,.13-20.87,10.44,10.44,0,1,0-.13,20.87Z"/><path d="M73.74,26.91c.06-.57,0-1.29.81-1.27s.75.71.77,1.22-.1,1.32-.77,1.34S73.8,27.48,73.74,26.91Z"/><path d="M69.19,26.81c.07-.51.07-1.18.8-1.17s.77.73.77,1.24-.07,1.35-.8,1.32S69.21,27.44,69.19,26.81Z"/></g></g></svg>