<svg xmlns="http://www.w3.org/2000/svg" viewBox="0 0 96.71 106.02"><defs><style>.cls-1{fill:none;}</style></defs><title>Small logo black</title><g id="Layer_2" data-name="Layer 2"><g id="Layer_1-2" data-name="Layer 1"><path d="M95,0c1.49,0,1.92.6,1.26,2a36.75,36.75,0,0,0-1.75,3.42c-.91,2.65-.34,5.26.46,7.86a16.71,16.71,0,0,1,1,5,7.28,7.28,0,0,1-1.47,3.48,6.41,6.41,0,0,0-.72,6.4c2.51,6,2,12.44,2.93,18.67A7.49,7.49,0,0,1,96.23,49c-.39,2.1-.91,4.19-1.1,6.31-.69,7.36-1.29,14.73-1.87,22.11-.51,6.41-.92,12.83-1.42,19.25a58.65,58.65,0,0,1-.66,6.07c-.41,2.27-1.64,3.34-3.34,3.24a3.74,3.74,0,0,1-3.23-3.49c-.31-2.66-.48-5.34-.62-8q-.76-14.77-1.48-29.57c-.2-4.07-.43-8.14-.65-12.21a3.29,3.29,0,0,0-.13-1.27c-2-4.1-.56-8.2-.13-12.33a58.74,58.74,0,0,1,2.49-11.93,9.16,9.16,0,0,0-.2-4.69c-.7-2.92-1.52-5.79-1.39-8.86C82.77,7.44,88.28,1.09,94.39.09Zm-2.8,60.11c.27-8.4.86-7.63-4.89-7.66-2.66,0-2.79.06-2.72,2.72.13,4.72.41,9.44.65,14.16q.72,14,1.49,28c.09,1.6.33,3.2.58,4.79,0,.3.48.61.81.78.08,0,.53-.36.63-.63A4.07,4.07,0,0,0,89,101c.25-3.43.48-6.85.72-10.28s.49-7.07.79-10.6C91.12,72.74,91.77,65.37,92.23,60.11ZM88.65,41.27c.86,0,1.72,0,2.58,0,2.14-.09,2.39-.34,2.23-2.5a39.54,39.54,0,0,0-.63-5.09,32.21,32.21,0,0,0-1.46-4.91,2.59,2.59,0,0,0-2.87-1.6,2.47,2.47,0,0,0-2.38,2.21c-.5,2.31-1,4.61-1.44,6.92C83.69,41.27,83.7,41.27,88.65,41.27ZM86,15.81a35.35,35.35,0,0,0,1.11,4.44c.67,1.86,2.06,2.08,3.45.65A5.22,5.22,0,0,0,92,15.6c-.67-2.56-1.13-5.18-1.69-7.77A4.59,4.59,0,0,0,90,7a2.94,2.94,0,0,0-.82.38C86.86,9.55,86.2,12.31,86,15.81ZM88.66,47v.07c1.18,0,2.36.07,3.52,0,.4,0,.76-.5,1.14-.77-.3-.26-.6-.74-.92-.75q-3.83-.1-7.67,0c-.28,0-.56.49-.84.75.31.26.61.72.94.74C86.1,47,87.39,47,88.66,47Z"/><path d="M92.23,60.11c-.46,5.26-1.11,12.63-1.72,20-.3,3.53-.53,7.07-.79,10.6S89.25,97.57,89,101a4.07,4.07,0,0,1-.22,1.26c-.1.27-.55.67-.63.63-.33-.17-.76-.48-.81-.78-.25-1.59-.49-3.19-.58-4.79q-.78-14-1.49-28c-.24-4.72-.52-9.44-.65-14.16-.07-2.66.06-2.73,2.72-2.72C93.09,52.48,92.5,51.71,92.23,60.11Z"/><path d="M88.65,41.27c-5,0-5,0-4-5,.46-2.31.94-4.61,1.44-6.92a2.47,2.47,0,0,1,2.38-2.21,2.59,2.59,0,0,1,2.87,1.6,32.21,32.21,0,0,1,1.46,4.91,39.54,39.54,0,0,1,.63,5.09c.16,2.16-.09,2.41-2.23,2.5C90.37,41.3,89.51,41.27,88.65,41.27Z"/><path class="cls-1" d="M86,15.81c.2-3.5.86-6.26,3.13-8.39A2.94,2.94,0,0,1,90,7a4.59,4.59,0,0,1,.34.79c.56,2.59,1,5.21,1.69,7.77a5.22,5.22,0,0,1-1.42,5.3c-1.39,1.43-2.78,1.21-3.45-.65A35.35,35.35,0,0,1,86,15.81Z"/><path d="M37.16,104.25c-1.62,0-3.25-.08-4.86,0C22.61,104.85,14.92,101,8.47,94-4.31,80-3,54.16,14.86,42.29a25.74,25.74,0,0,1,15.27-4.64c.65,0,1.3,0,1.95,0,3.71,0,3.78.75,3.76-3.56a6.22,6.22,0,0,1,.09-2.25c.28-.7.91-1.63,1.53-1.76,1.13-.24,1.26.87,1.31,1.75s0,1.52,0,2.28c0,3.93-.13,3.54,3.45,3.57a41.44,41.44,0,0,1,6.78.4c10.42,1.84,17.76,8,22,17.36,6.12,13.29,4.78,26.2-4.25,37.87a27.3,27.3,0,0,1-22.19,11c-2.49,0-5,0-7.46,0Zm1.52-29.88c0,7.91,0,15.81,0,23.72,0,2.68.27,3,2.53,3.23,7,.67,13.34-.92,18.81-5.44,13.31-11,14.58-28.25,7.25-41.42a25.76,25.76,0,0,0-14-12c-7.63-2.77-14.62,2.18-14.62,10.19Q38.67,63.49,38.68,74.37ZM36,74.44c0-7.79,0-15.59,0-23.38A8,8,0,0,0,32.2,44a11.78,11.78,0,0,0-12.3-1A26.31,26.31,0,0,0,9.24,51.74C2.33,61.61,1.08,72.22,5.4,83.45c4.09,10.65,14.93,18.94,26.67,18,3.73-.32,3.87-.3,3.88-3.92Q36,86,36,74.44Z"/><path d="M67.28,54.46a25.76,25.76,0,0,0-14-12c-7.63-2.77-14.62,2.18-14.62,10.19q0,10.88,0,21.76c0,7.91,0,15.81,0,23.72,0,2.68.27,3,2.53,3.23,7,.67,13.34-.92,18.81-5.44C73.34,84.87,74.61,67.63,67.28,54.46ZM44.23,74.85C42.8,75,41.42,73,41.36,70.7s1.24-4.22,2.71-4.26,2.73,2.15,2.7,4.28C46.74,72.64,45.44,74.76,44.23,74.85Z"/><path d="M14.63,96.43C20.29,101,26.87,102.66,34.1,102c2.33-.22,2.61-.55,2.62-3.29q0-12.09,0-24.18V52.3c0-8.17-7.23-13.21-15.13-10.39A26.57,26.57,0,0,0,7.13,54.19C-.46,67.62.86,85.2,14.63,96.43ZM28.36,70.77c0-2.17,1.39-4.4,2.79-4.36S34,68.53,34,70.76,32.46,75.09,31,75C29.73,74.89,28.39,72.73,28.36,70.77Z"/></g></g></svg>