<svg xmlns="http://www.w3.org/2000/svg" viewBox="0 0 96.71 106.02"><defs><style>.cls-1{fill:none;}</style></defs><title>Small-logo-black-painted</title><g id="Layer_2" data-name="Layer 2"><g id="Layer_1-2" data-name="Layer 1"><path class="cls-1" d="M86,15.81c.2-3.5.86-6.26,3.13-8.39A2.94,2.94,0,0,1,90,7a4.59,4.59,0,0,1,.34.79c.56,2.59,1,5.21,1.69,7.77a5.22,5.22,0,0,1-1.42,5.3c-1.39,1.43-2.78,1.21-3.45-.65A35.35,35.35,0,0,1,86,15.81Z"/><path d="M95,0c1.49,0,1.92.6,1.26,2a36.75,36.75,0,0,0-1.75,3.42c-.91,2.65-.34,5.26.46,7.86a16.71,16.71,0,0,1,1,5,7.28,7.28,0,0,1-1.47,3.48,6.41,6.41,0,0,0-.72,6.4c2.51,6,2,12.44,2.93,18.67A7.49,7.49,0,0,1,96.23,49c-.39,2.1-.91,4.19-1.1,6.31-.69,7.36-1.29,14.73-1.87,22.11-.51,6.41-.92,12.83-1.42,19.25a58.65,58.65,0,0,1-.66,6.07c-.41,2.27-1.64,3.34-3.34,3.24a3.74,3.74,0,0,1-3.23-3.49c-.31-2.66-.48-5.34-.62-8q-.76-14.77-1.48-29.57c-.2-4.07-.43-8.14-.65-12.21a3.29,3.29,0,0,0-.13-1.27c-2-4.1-.56-8.2-.13-12.33a58.74,58.74,0,0,1,2.49-11.93,9.16,9.16,0,0,0-.2-4.69c-.7-2.92-1.52-5.79-1.39-8.86C82.77,7.44,88.28,1.09,94.39.09Zm-2.8,60.11c.27-8.4.86-7.63-4.89-7.66-2.66,0-2.79.06-2.72,2.72.13,4.72.41,9.44.65,14.16q.72,14,1.49,28c.09,1.6.33,3.2.58,4.79,0,.3.48.61.81.78.08,0,.53-.36.63-.63A4.07,4.07,0,0,0,89,101c.25-3.43.48-6.85.72-10.28s.49-7.07.79-10.6C91.12,72.74,91.77,65.37,92.23,60.11ZM88.65,41.27c.86,0,1.72,0,2.58,0,2.14-.09,2.39-.34,2.23-2.5a39.54,39.54,0,0,0-.63-5.09,32.21,32.21,0,0,0-1.46-4.91,2.59,2.59,0,0,0-2.87-1.6,2.47,2.47,0,0,0-2.38,2.21c-.5,2.31-1,4.61-1.44,6.92C83.69,41.27,83.7,41.27,88.65,41.27ZM86,15.81a35.35,35.35,0,0,0,1.11,4.44c.67,1.86,2.06,2.08,3.45.65A5.22,5.22,0,0,0,92,15.6c-.67-2.56-1.13-5.18-1.69-7.77A4.59,4.59,0,0,0,90,7a2.94,2.94,0,0,0-.82.38C86.86,9.55,86.2,12.31,86,15.81ZM88.66,47v.07c1.18,0,2.36.07,3.52,0,.4,0,.76-.5,1.14-.77-.3-.26-.6-.74-.92-.75q-3.83-.1-7.67,0c-.28,0-.56.49-.84.75.31.26.61.72.94.74C86.1,47,87.39,47,88.66,47Z"/><path d="M92.23,60.11c-.46,5.26-1.11,12.63-1.72,20-.3,3.53-.53,7.07-.79,10.6S89.25,97.57,89,101a4.07,4.07,0,0,1-.22,1.26c-.1.27-.55.67-.63.63-.33-.17-.76-.48-.81-.78-.25-1.59-.49-3.19-.58-4.79q-.78-14-1.49-28c-.24-4.72-.52-9.44-.65-14.16-.07-2.66.06-2.73,2.72-2.72C93.09,52.48,92.5,51.71,92.23,60.11Z"/><path d="M88.65,41.27c-5,0-5,0-4-5,.46-2.31.94-4.61,1.44-6.92a2.47,2.47,0,0,1,2.38-2.21,2.59,2.59,0,0,1,2.87,1.6,32.21,32.21,0,0,1,1.46,4.91,39.54,39.54,0,0,1,.63,5.09c.16,2.16-.09,2.41-2.23,2.5C90.37,41.3,89.51,41.27,88.65,41.27Z"/><path class="cls-1" d="M44.07,66.44c-1.47,0-2.77,2.08-2.71,4.26S42.8,75,44.23,74.85c1.21-.09,2.51-2.21,2.54-4.13C46.8,68.59,45.42,66.41,44.07,66.44Z"/><path class="cls-1" d="M31.15,66.41c-1.4,0-2.83,2.19-2.79,4.36,0,2,1.37,4.12,2.63,4.21,1.47.11,2.9-1.93,3-4.22S32.67,66.45,31.15,66.41Z"/><path class="cls-1" d="M44.07,66.44c-1.47,0-2.77,2.08-2.71,4.26S42.8,75,44.23,74.85c1.21-.09,2.51-2.21,2.54-4.13C46.8,68.59,45.42,66.41,44.07,66.44Z"/><path class="cls-1" d="M31.15,66.41c-1.4,0-2.83,2.19-2.79,4.36,0,2,1.37,4.12,2.63,4.21,1.47.11,2.9-1.93,3-4.22S32.67,66.45,31.15,66.41Z"/><path d="M71.07,55.44c-4.29-9.33-11.63-15.52-22-17.36a41.44,41.44,0,0,0-6.78-.4c-3.58,0-3.45.36-3.45-3.57,0-.76,0-1.52,0-2.28s-.18-2-1.31-1.75c-.62.13-1.25,1.06-1.53,1.76a6.22,6.22,0,0,0-.09,2.25c0,4.31-.05,3.55-3.76,3.56-.65,0-1.3,0-1.95,0a25.74,25.74,0,0,0-15.27,4.64C-3,54.16-4.31,80,8.47,94c6.45,7,14.14,10.87,23.83,10.29,1.61-.1,3.24,0,4.86,0v0c2.48,0,5,0,7.46,0a27.3,27.3,0,0,0,22.19-11C75.85,81.64,77.19,68.73,71.07,55.44ZM31,75c-1.26-.09-2.6-2.25-2.63-4.21,0-2.17,1.39-4.4,2.79-4.36S34,68.53,34,70.76,32.46,75.09,31,75Zm13.24-.13C42.8,75,41.42,73,41.36,70.7s1.24-4.22,2.71-4.26,2.73,2.15,2.7,4.28C46.74,72.64,45.44,74.76,44.23,74.85Zm8.13,25.34A24.06,24.06,0,0,0,60,95.88,24.06,24.06,0,0,1,52.36,100.19Z"/><path d="M88.7,5.79a5.25,5.25,0,0,0,.87,5.91C90.89,13.12,93,11,91.7,9.58a2.13,2.13,0,0,1-.41-2.28,1.55,1.55,0,0,0-.54-2,1.51,1.51,0,0,0-2,.54Z"/><path d="M89.86,6.74C88,6,85,8,86.52,10.07a2,2,0,0,0,3,.39,1.91,1.91,0,0,0,.54-1.38,1.75,1.75,0,0,0-1.25-1.6,1.5,1.5,0,0,0-1.84,1,1.53,1.53,0,0,0,1,1.84l.08,0L87.42,10l0,.05-.39-.66a1.16,1.16,0,0,1,.47-1.21L88.3,8a1.27,1.27,0,0,1,.54.21c.1.12.11.1,0,0V9.69A2.18,2.18,0,0,1,89,9.47l-.07.11c.12-.12.12-.12,0,0,.13-.07.15-.08,0,0s-.08,0,.06,0c-.17,0-.2,0-.09,0s.09,0-.09,0a1.17,1.17,0,0,1,.24.09A1.5,1.5,0,0,0,90.9,8.59a1.55,1.55,0,0,0-1-1.85Z"/><path d="M92.49,15.62a1.5,1.5,0,0,0,0-3,1.5,1.5,0,0,0,0,3Z"/><path d="M91.15,16.29a1.5,1.5,0,0,0,0-3,1.5,1.5,0,0,0,0,3Z"/><path d="M92.34,14.87a10.79,10.79,0,0,0,.29-4.08,1.55,1.55,0,0,0-1.5-1.5,1.51,1.51,0,0,0-1.5,1.5,8.49,8.49,0,0,1-.19,3.29,1.5,1.5,0,0,0,2.9.79Z"/><path d="M87.39,10.76a3.89,3.89,0,0,0,2.83.47,1.52,1.52,0,0,0,1-1.85,1.53,1.53,0,0,0-1.84-1.05c.32-.06-.48,0-.15,0q-.26-.09-.09,0l-.28-.16a1.5,1.5,0,0,0-1.51,2.59Z"/></g></g></svg>