<svg xmlns="http://www.w3.org/2000/svg" viewBox="0 0 30.97 25.46"><title>f&amp;amp;pfavicon</title><g id="Layer_2" data-name="Layer 2"><g id="Layer_1-2" data-name="Layer 1"><path d="M19.35,13.75a3.66,3.66,0,0,0-.15-1.2,28.07,28.07,0,0,0-1.72-2.83c-.36-.53-.84-.5-1.35-.09l-.83.69L7,3.3,5.79,4.71,9.84,8.13l4,3.43c-.67.59-1.28,1.15-1.91,1.68s-1.38,1.07-2,1.66C7.11,17.52,4.28,20.16,1.67,23A9.07,9.07,0,0,0,0,25.46c.84-.19,1.6-.34,2.35-.54a25.26,25.26,0,0,0,4.44-2,42,42,0,0,0,8.15-5.63c1-.8,2-1.56,3-2.34l9.61,8.12,1.2-1.41ZM13.84,11,9,6.86,7.05,5.21c-.15-.12-.28-.26-.42-.39.45,0,7.36,5.81,7.65,6.4A3.23,3.23,0,0,1,13.84,11ZM7.14,4.22l.1-.12,7.68,6.5C14.5,10.59,7.55,4.78,7.14,4.22ZM27.32,22.37l-9-7.66c.09-.1.1-.11.12-.12l.05,0a.84.84,0,0,1,.19.09L27.24,22a.26.26,0,0,1,.1.13A1.27,1.27,0,0,1,27.32,22.37Zm-8.46-8.23a.13.13,0,0,1,0-.05l0,0,8.8,7.37a.71.71,0,0,1,.11.2C27.44,21.55,19.28,14.72,18.86,14.14Z"/><path d="M19.41,8.61l-.78-1.1c.25-.27.46-.53.7-.75C20.14,6,21,5.31,21.78,4.59c1-.9,2.06-1.8,3.1-2.68A19.2,19.2,0,0,1,26.64.55,4,4,0,0,1,27.9,0,1,1,0,0,1,29.21,1a3.69,3.69,0,0,1,0,1.05.81.81,0,0,1-1,.77,2.45,2.45,0,0,0-2.05.76c-1.13,1-2.28,1.88-3.43,2.81-.33.26-.71.47-1.06.71Zm8.22-7c.09-.12.3-.27.33-.45a.39.39,0,0,0-.41-.48.43.43,0,0,0-.44.47C27.1,1.44,27.24,1.59,27.63,1.64ZM24.36,3.79c-.11-.08-.26-.29-.44-.31s-.42.19-.42.46.12.43.39.42S24.34,4.22,24.36,3.79ZM20.64,7.48c.13-.17.32-.32.36-.5a.37.37,0,0,0-.4-.47.41.41,0,0,0-.43.46C20.16,7.21,20.27,7.39,20.64,7.48Z"/><path d="M6.77,3.14,5.6,4.54,4.29,3.44c-.32-.27-.65-.54-1-.82a.49.49,0,0,1-.06-.78,3.47,3.47,0,0,0,.25-.29C4,1,4.05.85,4.72,1.37S6.08,2.54,6.77,3.14Z"/><path d="M19.68,13.13A10.29,10.29,0,0,0,17,8.87l1.38-1.22.95,1.25c-.55,1.27,0,2.43.42,3.61C19.83,12.74,20.05,13,19.68,13.13Z"/><path d="M19.78,8.68c.53-.42,1.07-.83,1.61-1.24L25.55,4.3c.28-.22.55-.44.81-.68A2.14,2.14,0,0,1,28.23,3a.93.93,0,0,0,1.07-.6,2.92,2.92,0,0,1,.18-.31c.14,1-.21,1.45-1.09,1.36a2.57,2.57,0,0,0-2,.64q-2.67,2-5.36,4.05c-.36.27-.76.49-1.13.73Z"/><path d="M28.89,21.85l1.38,1.92-.44.54-2.13-1Z"/><path d="M30.09,24.44l.36-.42.52.72-.06.09Z"/></g></g></svg>