<svg xmlns="http://www.w3.org/2000/svg" viewBox="0 0 98.64 109"><defs><style>.cls-1{stroke:#000;stroke-miterlimit:10;stroke-width:0.25px;}</style></defs><title>Small-logo-line-simple</title><g id="Layer_2" data-name="Layer 2"><g id="Layer_1-2" data-name="Layer 1"><path d="M96.91,0c1.53,0,2,.62,1.29,2.07a35.28,35.28,0,0,0-1.79,3.52c-.94,2.72-.36,5.4.46,8.07a16.78,16.78,0,0,1,1,5.14,7.54,7.54,0,0,1-1.5,3.58A6.58,6.58,0,0,0,95.61,29c2.58,6.14,2,12.79,3,19.2a7.64,7.64,0,0,1-.48,2.25c-.4,2.15-.93,4.3-1.13,6.48C96.3,64.46,95.69,72,95.09,79.62c-.52,6.6-1,13.2-1.46,19.8a62,62,0,0,1-.68,6.24c-.42,2.33-1.69,3.44-3.43,3.33a3.86,3.86,0,0,1-3.33-3.59c-.31-2.73-.49-5.49-.63-8.24C85,87,84.55,76.89,84,66.75q-.32-6.27-.67-12.55a3.51,3.51,0,0,0-.13-1.31c-2-4.21-.58-8.43-.14-12.67A60.58,60.58,0,0,1,85.66,28a9.45,9.45,0,0,0-.2-4.82c-.73-3-1.57-5.95-1.43-9.1C84.31,7.65,90,1.12,96.25.09ZM94,61.8c.28-8.64.88-7.85-5-7.88-2.74,0-2.87.07-2.8,2.8.12,4.86.42,9.71.67,14.56q.74,14.39,1.52,28.77A48.43,48.43,0,0,0,89,105c0,.31.49.62.82.8.09,0,.55-.37.66-.65a4.2,4.2,0,0,0,.22-1.29c.25-3.52.49-7,.74-10.57s.5-7.27.81-10.9C92.89,74.79,93.56,67.2,94,61.8ZM90.35,42.43c.89,0,1.77,0,2.65,0,2.2-.1,2.46-.35,2.29-2.57a41.88,41.88,0,0,0-.64-5.24,33.16,33.16,0,0,0-1.51-5,2.65,2.65,0,0,0-3-1.65,2.54,2.54,0,0,0-2.44,2.28c-.51,2.37-1,4.73-1.48,7.11C85.25,42.43,85.26,42.43,90.35,42.43ZM87.62,16.25a39.84,39.84,0,0,0,1.14,4.57c.69,1.91,2.13,2.14,3.55.66A5.34,5.34,0,0,0,93.77,16c-.69-2.63-1.16-5.33-1.74-8a4.41,4.41,0,0,0-.35-.81,3.09,3.09,0,0,0-.84.39C88.51,9.82,87.83,12.65,87.62,16.25ZM90.36,48.3v.07c1.21,0,2.42.07,3.62,0,.41,0,.78-.52,1.17-.8-.31-.27-.62-.76-1-.77q-3.93-.12-7.88,0c-.29,0-.58.5-.87.77.32.27.63.74,1,.76C87.73,48.35,89.05,48.3,90.36,48.3Z"/><path class="cls-1" d="M34.84,104.45c-1.51,0-3-.08-4.54,0-9,.54-16.24-3-22.27-9.61-11.93-13-10.68-37.19,6-48.28a24,24,0,0,1,14.26-4.34c.61,0,1.22,0,1.82,0,3.47,0,3.53.69,3.51-3.33a5.84,5.84,0,0,1,.09-2.1c.26-.66.84-1.53,1.42-1.65,1.07-.22,1.19.82,1.23,1.64s0,1.42,0,2.12c0,3.68-.12,3.32,3.22,3.34a38.11,38.11,0,0,1,6.33.38c9.74,1.71,16.59,7.5,20.6,16.21,5.72,12.41,4.46,24.47-4,35.37a25.5,25.5,0,0,1-20.72,10.24c-2.33,0-4.65,0-7,0Zm1.41-27.91c0,7.38,0,14.77,0,22.15,0,2.51.26,2.81,2.37,3A23,23,0,0,0,56.2,96.63C68.64,86.34,69.82,70.24,63,57.93A24.09,24.09,0,0,0,49.91,46.69c-7.13-2.58-13.65,2-13.66,9.52Zm-2.54.06c0-7.28,0-14.56,0-21.84a7.49,7.49,0,0,0-3.52-6.63,11,11,0,0,0-11.49-.92,24.46,24.46,0,0,0-10,8.19C2.3,64.61,1.14,74.53,5.17,85,9,95,19.11,102.71,30.08,101.79c3.49-.29,3.62-.27,3.63-3.66Q33.72,87.36,33.71,76.6Z"/><path class="cls-1" d="M43.81,73.12c0,1.8-1.24,3.78-2.37,3.86-1.33.1-2.62-1.76-2.68-3.87s1.16-4,2.53-4S43.84,71.14,43.81,73.12Z"/><path class="cls-1" d="M26.32,72.88c0-2.27.91-3.71,2.28-3.75s2.67,2,2.64,3.94-1.44,4-2.68,3.92S26.29,75.24,26.32,72.88Z"/></g></g></svg>