<svg xmlns="http://www.w3.org/2000/svg" viewBox="0 0 100.01 106.02"><defs><style>.cls-1{stroke:#000;stroke-miterlimit:10;stroke-width:0.25px;}.cls-2{fill:none;}</style></defs><title>Small-Logo-line-painted</title><g id="Layer_2" data-name="Layer 2"><g id="Layer_1-2" data-name="Layer 1"><path class="cls-1" d="M37.38,103.7c-1.63,0-3.26-.09-4.88,0-9.71.58-17.42-3.24-23.89-10.31C-4.2,79.41-2.86,53.49,15,41.59a25.73,25.73,0,0,1,15.31-4.65c.65,0,1.3,0,2,0,3.72,0,3.79.74,3.77-3.57a6.27,6.27,0,0,1,.09-2.26c.28-.7.91-1.63,1.53-1.76,1.14-.24,1.27.87,1.32,1.76s0,1.52,0,2.27c0,3.95-.13,3.56,3.46,3.58a41.56,41.56,0,0,1,6.79.41c10.45,1.84,17.8,8.05,22.1,17.39,6.14,13.33,4.79,26.27-4.26,38a27.34,27.34,0,0,1-22.24,11c-2.49,0-5,0-7.48,0Zm1.51-29.95c0,7.92,0,15.84,0,23.77,0,2.69.28,3,2.54,3.23,7,.68,13.37-.91,18.86-5.45,13.34-11,14.62-28.32,7.27-41.52a25.89,25.89,0,0,0-14-12.07C45.9,38.94,38.9,43.9,38.89,51.93Zm-2.73.06c0-7.81,0-15.62,0-23.43a8,8,0,0,0-3.78-7.12,11.81,11.81,0,0,0-12.33-1A26.42,26.42,0,0,0,9.39,51.06C2.46,61,1.21,71.59,5.54,82.85c4.1,10.67,15,19,26.73,18,3.74-.31,3.88-.29,3.89-3.92Q36.18,85.37,36.16,73.81Z"/><path class="cls-1" d="M47,70.08c0,1.93-1.33,4-2.54,4.14-1.43.11-2.82-1.89-2.88-4.15s1.25-4.24,2.72-4.27S47,68,47,70.08Z"/><path class="cls-1" d="M28.23,69.82c0-2.43,1-4,2.45-4S33.55,68,33.52,70s-1.56,4.3-2.88,4.22S28.2,72.36,28.23,69.82Z"/><path d="M98.33,0c1.49,0,1.92.6,1.26,2a36.75,36.75,0,0,0-1.75,3.42c-.91,2.65-.34,5.26.46,7.86a16.71,16.71,0,0,1,1,5,7.28,7.28,0,0,1-1.47,3.48,6.41,6.41,0,0,0-.72,6.4c2.51,6,2,12.44,2.93,18.67A7.49,7.49,0,0,1,99.53,49c-.39,2.1-.91,4.19-1.1,6.31-.69,7.36-1.29,14.73-1.87,22.11-.51,6.41-.93,12.83-1.42,19.25-.15,2-.31,4.07-.66,6.07-.41,2.27-1.64,3.34-3.34,3.24a3.74,3.74,0,0,1-3.23-3.49c-.31-2.66-.48-5.34-.62-8q-.77-14.77-1.48-29.57-.32-6.11-.65-12.21A3.29,3.29,0,0,0,85,51.45c-2-4.1-.56-8.2-.13-12.33a58.74,58.74,0,0,1,2.49-11.93,9.27,9.27,0,0,0-.2-4.69c-.71-2.92-1.52-5.79-1.39-8.86C86.07,7.44,91.58,1.09,97.69.09Zm-2.8,60.11c.27-8.4.86-7.63-4.89-7.66-2.66,0-2.79.06-2.72,2.72.12,4.72.41,9.44.65,14.16q.72,14,1.49,28a45.69,45.69,0,0,0,.58,4.79c0,.3.48.61.81.78.08,0,.53-.36.63-.63A4.07,4.07,0,0,0,92.3,101c.25-3.43.48-6.85.72-10.28s.49-7.07.79-10.6C94.42,72.74,95.07,65.37,95.53,60.11ZM92,41.27c.86,0,1.72,0,2.58,0,2.14-.09,2.39-.34,2.23-2.5a39.54,39.54,0,0,0-.63-5.09,32.21,32.21,0,0,0-1.46-4.91,2.59,2.59,0,0,0-2.87-1.6,2.47,2.47,0,0,0-2.38,2.21c-.5,2.31-1,4.61-1.44,6.92C87,41.27,87,41.27,92,41.27ZM89.29,15.81a37.43,37.43,0,0,0,1.12,4.44c.67,1.86,2.06,2.08,3.45.65a5.22,5.22,0,0,0,1.42-5.3c-.67-2.56-1.13-5.18-1.69-7.77A4.59,4.59,0,0,0,93.25,7a2.94,2.94,0,0,0-.82.38C90.16,9.55,89.5,12.31,89.29,15.81ZM92,47v.07c1.18,0,2.36.07,3.52,0,.4,0,.76-.5,1.14-.77-.3-.26-.61-.74-.92-.75-2.56-.07-5.11-.08-7.67,0-.28,0-.56.49-.84.75.31.26.61.72.94.74C89.4,47,90.69,47,92,47Z"/><path class="cls-2" d="M89.29,15.81c.21-3.5.87-6.26,3.14-8.39A2.94,2.94,0,0,1,93.25,7a4.59,4.59,0,0,1,.34.79c.56,2.59,1,5.21,1.69,7.77a5.22,5.22,0,0,1-1.42,5.3c-1.39,1.43-2.78,1.21-3.45-.65A37.43,37.43,0,0,1,89.29,15.81Z"/><path d="M92,5.79a5.27,5.27,0,0,0,.88,5.91C94.19,13.12,96.31,11,95,9.58a2.13,2.13,0,0,1-.41-2.28,1.55,1.55,0,0,0-.54-2A1.52,1.52,0,0,0,92,5.79Z"/><path d="M93.16,6.74C91.25,6,88.3,8,89.82,10.07a1.89,1.89,0,0,0,3.53-1,1.75,1.75,0,0,0-1.25-1.6,1.5,1.5,0,0,0-1.84,1,1.53,1.53,0,0,0,1,1.84l.08,0L90.72,10l0,.05-.39-.66a1.16,1.16,0,0,1,.47-1.21L91.6,8a1.27,1.27,0,0,1,.54.21c.1.12.11.1,0,0V9.69a2.18,2.18,0,0,1,.12-.22l-.07.11c.12-.12.12-.12,0,0,.13-.07.15-.08,0,0s-.08,0,.06,0c-.17,0-.2,0-.09,0s.08,0-.09,0a1.17,1.17,0,0,1,.24.09A1.5,1.5,0,0,0,94.2,8.59a1.55,1.55,0,0,0-1-1.85Z"/><path d="M95.79,15.62a1.5,1.5,0,0,0,0-3,1.5,1.5,0,0,0,0,3Z"/><path d="M94.45,16.29a1.5,1.5,0,0,0,0-3,1.5,1.5,0,0,0,0,3Z"/><path d="M95.64,14.87a10.79,10.79,0,0,0,.29-4.08,1.55,1.55,0,0,0-1.5-1.5c-.73,0-1.61.69-1.5,1.5a8.49,8.49,0,0,1-.19,3.29,1.5,1.5,0,0,0,2.9.79Z"/><path d="M90.69,10.76a3.89,3.89,0,0,0,2.83.47,1.5,1.5,0,0,0-.8-2.9c.32-.06-.48,0-.15,0q-.25-.09-.09,0l-.28-.16a1.5,1.5,0,1,0-1.51,2.59Z"/></g></g></svg>